<?xml version="1.0" encoding="UTF-8" standalone="no"?><svg xmlns="http://www.w3.org/2000/svg" xmlns:xlink="http://www.w3.org/1999/xlink" contentScriptType="application/ecmascript" contentStyleType="text/css" height="1180px" preserveAspectRatio="none" style="width:2337px;height:1180px;" version="1.1" viewBox="0 0 2337 1180" width="2337px" zoomAndPan="magnify"><defs><filter height="300%" id="f70e9k29whrdu" width="300%" x="-1" y="-1"><feGaussianBlur result="blurOut" stdDeviation="2.0"/><feColorMatrix in="blurOut" result="blurOut2" type="matrix" values="0 0 0 0 0 0 0 0 0 0 0 0 0 0 0 0 0 0 .4 0"/><feOffset dx="4.0" dy="4.0" in="blurOut2" result="blurOut3"/><feBlend in="SourceGraphic" in2="blurOut3" mode="normal"/></filter></defs><g><!--cluster hsMannheim.pr2.ws2018.grp3.pflichtuebung2.personen.juristischePersonen.stadtverwaltung--><polygon fill="#FFFFFF" filter="url(#f70e9k29whrdu)" points="671,520,1420,520,1427,542.2969,1430,542.2969,1430,773,671,773,671,520" style="stroke: #000000; stroke-width: 1.5;"/><line style="stroke: #000000; stroke-width: 1.5;" x1="671" x2="1427" y1="542.2969" y2="542.2969"/><text fill="#000000" font-family="sans-serif" font-size="14" font-weight="bold" lengthAdjust="spacingAndGlyphs" textLength="743" x="675" y="534.9951">hsMannheim.pr2.ws2018.grp3.pflichtuebung2.personen.juristischePersonen.stadtverwaltung</text><!--cluster hsMannheim.pr2.ws2018.grp3.pflichtuebung2.personen.juristischePersonen--><polygon fill="#FFFFFF" filter="url(#f70e9k29whrdu)" points="22,590.5,637,590.5,644,612.7969,647,612.7969,647,1168,22,1168,22,590.5" style="stroke: #000000; stroke-width: 1.5;"/><line style="stroke: #000000; stroke-width: 1.5;" x1="22" x2="644" y1="612.7969" y2="612.7969"/><text fill="#000000" font-family="sans-serif" font-size="14" font-weight="bold" lengthAdjust="spacingAndGlyphs" textLength="609" x="26" y="605.4951">hsMannheim.pr2.ws2018.grp3.pflichtuebung2.personen.juristischePersonen</text><!--cluster hsMannheim.pr2.ws2018.grp3.pflichtuebung2.personen--><polygon fill="#FFFFFF" filter="url(#f70e9k29whrdu)" points="815,58,1267,58,1274,80.2969,1277,80.2969,1277,362,815,362,815,58" style="stroke: #000000; stroke-width: 1.5;"/><line style="stroke: #000000; stroke-width: 1.5;" x1="815" x2="1274" y1="80.2969" y2="80.2969"/><text fill="#000000" font-family="sans-serif" font-size="14" font-weight="bold" lengthAdjust="spacingAndGlyphs" textLength="446" x="819" y="72.9951">hsMannheim.pr2.ws2018.grp3.pflichtuebung2.personen</text><!--cluster hsMannheim.pr2.ws2018.grp3.pflichtuebung2.personen.natuerlichePersonen--><polygon fill="#FFFFFF" filter="url(#f70e9k29whrdu)" points="1454,386,2076,386,2083,408.2969,2315,408.2969,2315,996,1454,996,1454,386" style="stroke: #000000; stroke-width: 1.5;"/><line style="stroke: #000000; stroke-width: 1.5;" x1="1454" x2="2083" y1="408.2969" y2="408.2969"/><text fill="#000000" font-family="sans-serif" font-size="14" font-weight="bold" lengthAdjust="spacingAndGlyphs" textLength="616" x="1458" y="400.9951">hsMannheim.pr2.ws2018.grp3.pflichtuebung2.personen.natuerlichePersonen</text><!--class Steuerzahler--><rect fill="#FEFECE" filter="url(#f70e9k29whrdu)" height="60.8047" id="Steuerzahler" style="stroke: #A80036; stroke-width: 1.5;" width="170" x="1090" y="625.5"/><ellipse cx="1131.1" cy="641.5" fill="#B4A7E5" rx="11" ry="11" style="stroke: #A80036; stroke-width: 1.0;"/><path d="M1132.0531,638.2813 L1132.0531,644.7969 L1133.7719,644.7969 C1134.225,644.7969 1134.3656,644.8281 1134.5375,644.9531 C1134.7719,645.125 1134.8813,645.375 1134.8813,645.6563 C1134.8813,646.2188 1134.5219,646.5 1133.7719,646.5 L1128.6313,646.5 C1128.225,646.5 1128.0219,646.4531 1127.8656,646.3281 C1127.6469,646.1719 1127.5063,645.9063 1127.5063,645.6563 C1127.5063,645.3594 1127.6625,645.0781 1127.9125,644.9219 C1128.0688,644.8125 1128.1938,644.7969 1128.6313,644.7969 L1130.35,644.7969 L1130.35,638.2813 L1128.6313,638.2813 C1128.2094,638.2813 1128.0219,638.25 1127.8656,638.1406 C1127.6469,637.9688 1127.5063,637.7188 1127.5063,637.4375 C1127.5063,637.1563 1127.6625,636.8594 1127.9125,636.7031 C1128.0688,636.6094 1128.1938,636.5938 1128.6313,636.5938 L1133.7719,636.5938 C1134.225,636.5938 1134.3656,636.625 1134.5375,636.7344 C1134.7719,636.9063 1134.8813,637.1719 1134.8813,637.4375 C1134.8813,637.7344 1134.7406,638.0156 1134.475,638.1719 C1134.35,638.25 1134.1625,638.2813 1133.7719,638.2813 Z "/><text fill="#000000" font-family="sans-serif" font-size="12" font-style="italic" lengthAdjust="spacingAndGlyphs" textLength="80" x="1150.9" y="645.6543">Steuerzahler</text><line style="stroke: #A80036; stroke-width: 1.5;" x1="1091" x2="1259" y1="657.5" y2="657.5"/><line style="stroke: #A80036; stroke-width: 1.5;" x1="1091" x2="1259" y1="665.5" y2="665.5"/><text fill="#000000" font-family="sans-serif" font-size="11" lengthAdjust="spacingAndGlyphs" text-decoration="underline" textLength="158" x="1096" y="679.7104">+meldeAnFinanzamt() : void</text><line style="stroke: #000000; stroke-width: 1.0;" x1="1096" x2="1254" y1="681.7104" y2="681.7104"/><!--class Finanzamt--><rect fill="#FEFECE" filter="url(#f70e9k29whrdu)" height="201.6563" id="Finanzamt" style="stroke: #A80036; stroke-width: 1.5;" width="345" x="709.5" y="555"/><ellipse cx="846.25" cy="571" fill="#ADD1B2" rx="11" ry="11" style="stroke: #A80036; stroke-width: 1.0;"/><path d="M848.5938,566.6719 L848.7656,566.75 C848.9844,566.4375 849.1875,566.3438 849.4844,566.3438 C849.7813,566.3438 850.0625,566.4844 850.2188,566.75 C850.3125,566.9063 850.3281,567.0313 850.3281,567.4688 L850.3281,568.8906 C850.3281,569.3125 850.2969,569.5 850.1875,569.6563 C850.0156,569.875 849.75,570.0156 849.4844,570.0156 C849.2656,570.0156 849.0313,569.9063 848.8906,569.7656 C848.75,569.6406 848.7188,569.5156 848.6563,569.1094 C848.5625,568.7031 848.3906,568.4844 847.9063,568.2031 C847.4375,567.9531 846.8281,567.7969 846.25,567.7969 C844.5156,567.7969 843.2656,569.1094 843.2656,570.8906 L843.2656,571.9844 C843.2656,573.6875 844.5625,574.7813 846.6094,574.7813 C847.375,574.7813 848.0625,574.6563 848.4844,574.3906 C848.6719,574.2969 848.6719,574.2969 849.125,573.8125 C849.3125,573.625 849.5156,573.5469 849.7344,573.5469 C850.2031,573.5469 850.5938,573.9375 850.5938,574.3906 C850.5938,574.7813 850.2656,575.2344 849.6875,575.6406 C848.9375,576.1875 847.7813,576.4844 846.5625,576.4844 C843.6719,576.4844 841.5625,574.5938 841.5625,572.0156 L841.5625,570.8906 C841.5625,568.1719 843.5625,566.0938 846.1875,566.0938 C847.0625,566.0938 847.6563,566.2344 848.5938,566.6719 Z "/><text fill="#000000" font-family="sans-serif" font-size="12" lengthAdjust="spacingAndGlyphs" textLength="63" x="866.75" y="575.1543">Finanzamt</text><line style="stroke: #A80036; stroke-width: 1.5;" x1="710.5" x2="1053.5" y1="587" y2="587"/><text fill="#000000" font-family="sans-serif" font-size="11" lengthAdjust="spacingAndGlyphs" text-decoration="underline" textLength="212" x="715.5" y="601.2104">-steuerpflichtige : ArrayList&lt;Person&gt;</text><line style="stroke: #000000; stroke-width: 1.0;" x1="715.5" x2="927.5" y1="603.2104" y2="603.2104"/><line style="stroke: #A80036; stroke-width: 1.5;" x1="710.5" x2="1053.5" y1="607.8047" y2="607.8047"/><text fill="#000000" font-family="sans-serif" font-size="11" lengthAdjust="spacingAndGlyphs" textLength="270" x="715.5" y="622.0151">+berechneEinkommenssteuer(Person) : double</text><text fill="#000000" font-family="sans-serif" font-size="11" lengthAdjust="spacingAndGlyphs" textLength="248" x="715.5" y="634.8198">+berechneGewerbesteuer(Person) : double</text><text fill="#000000" font-family="sans-serif" font-size="11" lengthAdjust="spacingAndGlyphs" textLength="284" x="715.5" y="647.6245">+berechneKoerperschaftssteuer(Person) : double</text><text fill="#000000" font-family="sans-serif" font-size="11" lengthAdjust="spacingAndGlyphs" textLength="333" x="715.5" y="660.4292">+berechneGesamtsteuerFuerPersonen(Person...) : double</text><text fill="#000000" font-family="sans-serif" font-size="11" lengthAdjust="spacingAndGlyphs" textLength="229" x="715.5" y="673.2339">+berechneSteuerAllerBuerger() : double</text><text fill="#000000" font-family="sans-serif" font-size="11" lengthAdjust="spacingAndGlyphs" textLength="236" x="715.5" y="686.0386">+berechneSteuerAllerSchurken() : double</text><text fill="#000000" font-family="sans-serif" font-size="11" lengthAdjust="spacingAndGlyphs" textLength="270" x="715.5" y="698.8433">+berechneSteuerAllerOrganisationen() : double</text><text fill="#000000" font-family="sans-serif" font-size="11" lengthAdjust="spacingAndGlyphs" textLength="202" x="715.5" y="711.6479">+berechneGesamtsteuer() : double</text><text fill="#000000" font-family="sans-serif" font-size="11" lengthAdjust="spacingAndGlyphs" text-decoration="underline" textLength="199" x="715.5" y="724.4526">+setSteuerpflichtige(Person) : void</text><line style="stroke: #000000; stroke-width: 1.0;" x1="715.5" x2="914.5" y1="726.4526" y2="726.4526"/><text fill="#000000" font-family="sans-serif" font-size="11" lengthAdjust="spacingAndGlyphs" text-decoration="underline" textLength="271" x="715.5" y="737.2573">+getAlleSteuerpflichtigen() : ArrayList&lt;Person&gt;</text><line style="stroke: #000000; stroke-width: 1.0;" x1="715.5" x2="986.5" y1="739.2573" y2="739.2573"/><text fill="#000000" font-family="sans-serif" font-size="11" lengthAdjust="spacingAndGlyphs" text-decoration="underline" textLength="144" x="715.5" y="750.062">+getInstanz() : Finanzamt</text><line style="stroke: #000000; stroke-width: 1.0;" x1="715.5" x2="859.5" y1="752.062" y2="752.062"/><!--class Kapitalgesellschaft--><rect fill="#FEFECE" filter="url(#f70e9k29whrdu)" height="112.0234" id="Kapitalgesellschaft" style="stroke: #A80036; stroke-width: 1.5;" width="252" x="92" y="1040"/><ellipse cx="154.75" cy="1056" fill="#ADD1B2" rx="11" ry="11" style="stroke: #A80036; stroke-width: 1.0;"/><path d="M157.0938,1051.6719 L157.2656,1051.75 C157.4844,1051.4375 157.6875,1051.3438 157.9844,1051.3438 C158.2813,1051.3438 158.5625,1051.4844 158.7188,1051.75 C158.8125,1051.9063 158.8281,1052.0313 158.8281,1052.4688 L158.8281,1053.8906 C158.8281,1054.3125 158.7969,1054.5 158.6875,1054.6563 C158.5156,1054.875 158.25,1055.0156 157.9844,1055.0156 C157.7656,1055.0156 157.5313,1054.9063 157.3906,1054.7656 C157.25,1054.6406 157.2188,1054.5156 157.1563,1054.1094 C157.0625,1053.7031 156.8906,1053.4844 156.4063,1053.2031 C155.9375,1052.9531 155.3281,1052.7969 154.75,1052.7969 C153.0156,1052.7969 151.7656,1054.1094 151.7656,1055.8906 L151.7656,1056.9844 C151.7656,1058.6875 153.0625,1059.7813 155.1094,1059.7813 C155.875,1059.7813 156.5625,1059.6563 156.9844,1059.3906 C157.1719,1059.2969 157.1719,1059.2969 157.625,1058.8125 C157.8125,1058.625 158.0156,1058.5469 158.2344,1058.5469 C158.7031,1058.5469 159.0938,1058.9375 159.0938,1059.3906 C159.0938,1059.7813 158.7656,1060.2344 158.1875,1060.6406 C157.4375,1061.1875 156.2813,1061.4844 155.0625,1061.4844 C152.1719,1061.4844 150.0625,1059.5938 150.0625,1057.0156 L150.0625,1055.8906 C150.0625,1053.1719 152.0625,1051.0938 154.6875,1051.0938 C155.5625,1051.0938 156.1563,1051.2344 157.0938,1051.6719 Z "/><text fill="#000000" font-family="sans-serif" font-size="12" lengthAdjust="spacingAndGlyphs" textLength="118" x="175.25" y="1060.1543">Kapitalgesellschaft</text><line style="stroke: #A80036; stroke-width: 1.5;" x1="93" x2="343" y1="1072" y2="1072"/><text fill="#000000" font-family="sans-serif" font-size="11" lengthAdjust="spacingAndGlyphs" textLength="205" x="98" y="1086.2104">-gesellschafter : ArrayList&lt;Person&gt;</text><line style="stroke: #A80036; stroke-width: 1.5;" x1="93" x2="343" y1="1092.8047" y2="1092.8047"/><text fill="#000000" font-family="sans-serif" font-size="11" lengthAdjust="spacingAndGlyphs" textLength="158" x="98" y="1107.0151">+meldeAnFinanzamt() : void</text><text fill="#000000" font-family="sans-serif" font-size="11" lengthAdjust="spacingAndGlyphs" textLength="211" x="98" y="1119.8198">+setGesellschafter(Buerger...) : void</text><text fill="#000000" font-family="sans-serif" font-size="11" lengthAdjust="spacingAndGlyphs" textLength="184" x="98" y="1132.6245">+getGesellschafter() : Buerger[]</text><text fill="#000000" font-family="sans-serif" font-size="11" lengthAdjust="spacingAndGlyphs" textLength="240" x="98" y="1145.4292">+setInhaberausgetreten(Buerger...) : void</text><!--class Organisation--><rect fill="#FEFECE" filter="url(#f70e9k29whrdu)" height="60.8047" id="Organisation" style="stroke: #A80036; stroke-width: 1.5;" width="126" x="249" y="625.5"/><ellipse cx="271.2" cy="641.5" fill="#A9DCDF" rx="11" ry="11" style="stroke: #A80036; stroke-width: 1.0;"/><path d="M272.7781,643.3125 L268.7313,643.3125 L268.3406,644.2969 L268.7313,644.2969 C269.1844,644.2969 269.325,644.3281 269.4969,644.4531 C269.7156,644.625 269.8406,644.875 269.8406,645.1563 C269.8406,645.4375 269.7,645.7344 269.4344,645.875 C269.3094,645.9688 269.0906,646 268.7313,646 L266.4656,646 C265.7156,646 265.3406,645.7188 265.3406,645.1563 C265.3406,644.8594 265.4969,644.5781 265.7469,644.4219 C265.9031,644.3125 266.0594,644.2969 266.4813,644.2969 L269.1219,637.7813 L268.0438,637.7813 C267.6063,637.7813 267.4344,637.75 267.2625,637.6406 C267.0438,637.4688 266.9031,637.2188 266.9031,636.9375 C266.9031,636.6563 267.0594,636.375 267.3094,636.2031 C267.4656,636.1094 267.5906,636.0938 268.0438,636.0938 L271.7156,636.0938 L275.1063,644.2969 C275.575,644.2969 275.7313,644.3281 275.9031,644.4688 C276.1219,644.625 276.2625,644.875 276.2625,645.1563 C276.2625,645.4375 276.1063,645.7344 275.8563,645.875 C275.7156,645.9688 275.4969,646 275.1375,646 L272.7781,646 C272.3563,646 272.1531,645.9531 272.0125,645.8281 C271.7938,645.6719 271.6531,645.4219 271.6531,645.1563 C271.6531,644.8594 271.8094,644.5781 272.0594,644.4219 C272.2156,644.3125 272.325,644.2969 272.7781,644.2969 L273.1688,644.2969 Z M272.075,641.6094 L270.7469,638.3438 L269.4031,641.6094 Z "/><text fill="#000000" font-family="sans-serif" font-size="12" font-style="italic" lengthAdjust="spacingAndGlyphs" textLength="78" x="286.8" y="645.6543">Organisation</text><line style="stroke: #A80036; stroke-width: 1.5;" x1="250" x2="374" y1="657.5" y2="657.5"/><line style="stroke: #A80036; stroke-width: 1.5;" x1="250" x2="374" y1="665.5" y2="665.5"/><text fill="#000000" font-family="sans-serif" font-size="11" lengthAdjust="spacingAndGlyphs" textLength="114" x="255" y="679.7104">+getName() : String</text><!--class Personengesellschaft--><rect fill="#FEFECE" filter="url(#f70e9k29whrdu)" height="112.0234" id="Personengesellschaft" style="stroke: #A80036; stroke-width: 1.5;" width="252" x="379" y="1040"/><ellipse cx="432.75" cy="1056" fill="#ADD1B2" rx="11" ry="11" style="stroke: #A80036; stroke-width: 1.0;"/><path d="M435.0938,1051.6719 L435.2656,1051.75 C435.4844,1051.4375 435.6875,1051.3438 435.9844,1051.3438 C436.2813,1051.3438 436.5625,1051.4844 436.7188,1051.75 C436.8125,1051.9063 436.8281,1052.0313 436.8281,1052.4688 L436.8281,1053.8906 C436.8281,1054.3125 436.7969,1054.5 436.6875,1054.6563 C436.5156,1054.875 436.25,1055.0156 435.9844,1055.0156 C435.7656,1055.0156 435.5313,1054.9063 435.3906,1054.7656 C435.25,1054.6406 435.2188,1054.5156 435.1563,1054.1094 C435.0625,1053.7031 434.8906,1053.4844 434.4063,1053.2031 C433.9375,1052.9531 433.3281,1052.7969 432.75,1052.7969 C431.0156,1052.7969 429.7656,1054.1094 429.7656,1055.8906 L429.7656,1056.9844 C429.7656,1058.6875 431.0625,1059.7813 433.1094,1059.7813 C433.875,1059.7813 434.5625,1059.6563 434.9844,1059.3906 C435.1719,1059.2969 435.1719,1059.2969 435.625,1058.8125 C435.8125,1058.625 436.0156,1058.5469 436.2344,1058.5469 C436.7031,1058.5469 437.0938,1058.9375 437.0938,1059.3906 C437.0938,1059.7813 436.7656,1060.2344 436.1875,1060.6406 C435.4375,1061.1875 434.2813,1061.4844 433.0625,1061.4844 C430.1719,1061.4844 428.0625,1059.5938 428.0625,1057.0156 L428.0625,1055.8906 C428.0625,1053.1719 430.0625,1051.0938 432.6875,1051.0938 C433.5625,1051.0938 434.1563,1051.2344 435.0938,1051.6719 Z "/><text fill="#000000" font-family="sans-serif" font-size="12" lengthAdjust="spacingAndGlyphs" textLength="136" x="453.25" y="1060.1543">Personengesellschaft</text><line style="stroke: #A80036; stroke-width: 1.5;" x1="380" x2="630" y1="1072" y2="1072"/><text fill="#000000" font-family="sans-serif" font-size="11" lengthAdjust="spacingAndGlyphs" textLength="163" x="385" y="1086.2104">-inhaber: ArrayList&lt;Person&gt;</text><line style="stroke: #A80036; stroke-width: 1.5;" x1="380" x2="630" y1="1092.8047" y2="1092.8047"/><text fill="#000000" font-family="sans-serif" font-size="11" lengthAdjust="spacingAndGlyphs" textLength="158" x="385" y="1107.0151">+meldeAnFinanzamt() : void</text><text fill="#000000" font-family="sans-serif" font-size="11" lengthAdjust="spacingAndGlyphs" textLength="211" x="385" y="1119.8198">+setGesellschafter(Buerger...) : void</text><text fill="#000000" font-family="sans-serif" font-size="11" lengthAdjust="spacingAndGlyphs" textLength="184" x="385" y="1132.6245">+getGesellschafter() : Buerger[]</text><text fill="#000000" font-family="sans-serif" font-size="11" lengthAdjust="spacingAndGlyphs" textLength="240" x="385" y="1145.4292">+setInhaberausgetreten(Buerger...) : void</text><!--class Unternehmen--><rect fill="#FEFECE" filter="url(#f70e9k29whrdu)" height="48" id="Unternehmen" style="stroke: #A80036; stroke-width: 1.5;" width="118" x="214" y="874.5"/><ellipse cx="229" cy="890.5" fill="#A9DCDF" rx="11" ry="11" style="stroke: #A80036; stroke-width: 1.0;"/><path d="M230.5781,892.3125 L226.5313,892.3125 L226.1406,893.2969 L226.5313,893.2969 C226.9844,893.2969 227.125,893.3281 227.2969,893.4531 C227.5156,893.625 227.6406,893.875 227.6406,894.1563 C227.6406,894.4375 227.5,894.7344 227.2344,894.875 C227.1094,894.9688 226.8906,895 226.5313,895 L224.2656,895 C223.5156,895 223.1406,894.7188 223.1406,894.1563 C223.1406,893.8594 223.2969,893.5781 223.5469,893.4219 C223.7031,893.3125 223.8594,893.2969 224.2813,893.2969 L226.9219,886.7813 L225.8438,886.7813 C225.4063,886.7813 225.2344,886.75 225.0625,886.6406 C224.8438,886.4688 224.7031,886.2188 224.7031,885.9375 C224.7031,885.6563 224.8594,885.375 225.1094,885.2031 C225.2656,885.1094 225.3906,885.0938 225.8438,885.0938 L229.5156,885.0938 L232.9063,893.2969 C233.375,893.2969 233.5313,893.3281 233.7031,893.4688 C233.9219,893.625 234.0625,893.875 234.0625,894.1563 C234.0625,894.4375 233.9063,894.7344 233.6563,894.875 C233.5156,894.9688 233.2969,895 232.9375,895 L230.5781,895 C230.1563,895 229.9531,894.9531 229.8125,894.8281 C229.5938,894.6719 229.4531,894.4219 229.4531,894.1563 C229.4531,893.8594 229.6094,893.5781 229.8594,893.4219 C230.0156,893.3125 230.125,893.2969 230.5781,893.2969 L230.9688,893.2969 Z M229.875,890.6094 L228.5469,887.3438 L227.2031,890.6094 Z "/><text fill="#000000" font-family="sans-serif" font-size="12" font-style="italic" lengthAdjust="spacingAndGlyphs" textLength="86" x="243" y="894.6543">Unternehmen</text><line style="stroke: #A80036; stroke-width: 1.5;" x1="215" x2="331" y1="906.5" y2="906.5"/><line style="stroke: #A80036; stroke-width: 1.5;" x1="215" x2="331" y1="914.5" y2="914.5"/><!--class Syndikat--><rect fill="#FEFECE" filter="url(#f70e9k29whrdu)" height="112.0234" id="Syndikat" style="stroke: #A80036; stroke-width: 1.5;" width="264" x="367" y="842.5"/><ellipse cx="468.25" cy="858.5" fill="#ADD1B2" rx="11" ry="11" style="stroke: #A80036; stroke-width: 1.0;"/><path d="M470.5938,854.1719 L470.7656,854.25 C470.9844,853.9375 471.1875,853.8438 471.4844,853.8438 C471.7813,853.8438 472.0625,853.9844 472.2188,854.25 C472.3125,854.4063 472.3281,854.5313 472.3281,854.9688 L472.3281,856.3906 C472.3281,856.8125 472.2969,857 472.1875,857.1563 C472.0156,857.375 471.75,857.5156 471.4844,857.5156 C471.2656,857.5156 471.0313,857.4063 470.8906,857.2656 C470.75,857.1406 470.7188,857.0156 470.6563,856.6094 C470.5625,856.2031 470.3906,855.9844 469.9063,855.7031 C469.4375,855.4531 468.8281,855.2969 468.25,855.2969 C466.5156,855.2969 465.2656,856.6094 465.2656,858.3906 L465.2656,859.4844 C465.2656,861.1875 466.5625,862.2813 468.6094,862.2813 C469.375,862.2813 470.0625,862.1563 470.4844,861.8906 C470.6719,861.7969 470.6719,861.7969 471.125,861.3125 C471.3125,861.125 471.5156,861.0469 471.7344,861.0469 C472.2031,861.0469 472.5938,861.4375 472.5938,861.8906 C472.5938,862.2813 472.2656,862.7344 471.6875,863.1406 C470.9375,863.6875 469.7813,863.9844 468.5625,863.9844 C465.6719,863.9844 463.5625,862.0938 463.5625,859.5156 L463.5625,858.3906 C463.5625,855.6719 465.5625,853.5938 468.1875,853.5938 C469.0625,853.5938 469.6563,853.7344 470.5938,854.1719 Z "/><text fill="#000000" font-family="sans-serif" font-size="12" lengthAdjust="spacingAndGlyphs" textLength="53" x="488.75" y="862.6543">Syndikat</text><line style="stroke: #A80036; stroke-width: 1.5;" x1="368" x2="630" y1="874.5" y2="874.5"/><text fill="#000000" font-family="sans-serif" font-size="11" lengthAdjust="spacingAndGlyphs" textLength="177" x="373" y="888.7104">-mitglieder: ArrayList&lt;Person&gt;</text><line style="stroke: #A80036; stroke-width: 1.5;" x1="368" x2="630" y1="895.3047" y2="895.3047"/><text fill="#000000" font-family="sans-serif" font-size="11" lengthAdjust="spacingAndGlyphs" textLength="183" x="373" y="909.5151">+setMitglieder(Schurke...) : void</text><text fill="#000000" font-family="sans-serif" font-size="11" lengthAdjust="spacingAndGlyphs" textLength="156" x="373" y="922.3198">+getMitglieder() : Schurke[]</text><text fill="#000000" font-family="sans-serif" font-size="11" lengthAdjust="spacingAndGlyphs" textLength="158" x="373" y="935.1245">+meldeAnFinanzamt() : void</text><text fill="#000000" font-family="sans-serif" font-size="11" lengthAdjust="spacingAndGlyphs" textLength="252" x="373" y="947.9292">+setMitgliederausgetreten(Schurke...) : void</text><!--class Person--><rect fill="#FEFECE" filter="url(#f70e9k29whrdu)" height="252.875" id="Person" style="stroke: #A80036; stroke-width: 1.5;" width="274" x="909" y="93"/><ellipse cx="1019.75" cy="109" fill="#ADD1B2" rx="11" ry="11" style="stroke: #A80036; stroke-width: 1.0;"/><path d="M1022.0938,104.6719 L1022.2656,104.75 C1022.4844,104.4375 1022.6875,104.3438 1022.9844,104.3438 C1023.2813,104.3438 1023.5625,104.4844 1023.7188,104.75 C1023.8125,104.9063 1023.8281,105.0313 1023.8281,105.4688 L1023.8281,106.8906 C1023.8281,107.3125 1023.7969,107.5 1023.6875,107.6563 C1023.5156,107.875 1023.25,108.0156 1022.9844,108.0156 C1022.7656,108.0156 1022.5313,107.9063 1022.3906,107.7656 C1022.25,107.6406 1022.2188,107.5156 1022.1563,107.1094 C1022.0625,106.7031 1021.8906,106.4844 1021.4063,106.2031 C1020.9375,105.9531 1020.3281,105.7969 1019.75,105.7969 C1018.0156,105.7969 1016.7656,107.1094 1016.7656,108.8906 L1016.7656,109.9844 C1016.7656,111.6875 1018.0625,112.7813 1020.1094,112.7813 C1020.875,112.7813 1021.5625,112.6563 1021.9844,112.3906 C1022.1719,112.2969 1022.1719,112.2969 1022.625,111.8125 C1022.8125,111.625 1023.0156,111.5469 1023.2344,111.5469 C1023.7031,111.5469 1024.0938,111.9375 1024.0938,112.3906 C1024.0938,112.7813 1023.7656,113.2344 1023.1875,113.6406 C1022.4375,114.1875 1021.2813,114.4844 1020.0625,114.4844 C1017.1719,114.4844 1015.0625,112.5938 1015.0625,110.0156 L1015.0625,108.8906 C1015.0625,106.1719 1017.0625,104.0938 1019.6875,104.0938 C1020.5625,104.0938 1021.1563,104.2344 1022.0938,104.6719 Z "/><text fill="#000000" font-family="sans-serif" font-size="12" lengthAdjust="spacingAndGlyphs" textLength="44" x="1040.25" y="113.1543">Person</text><line style="stroke: #A80036; stroke-width: 1.5;" x1="910" x2="1182" y1="125" y2="125"/><text fill="#000000" font-family="sans-serif" font-size="11" lengthAdjust="spacingAndGlyphs" textLength="208" x="915" y="139.2104">-einkommensteuerpflichtig : boolean</text><text fill="#000000" font-family="sans-serif" font-size="11" lengthAdjust="spacingAndGlyphs" textLength="240" x="915" y="152.0151">-boolean gewerbesteuerpflichtig : boolean</text><text fill="#000000" font-family="sans-serif" font-size="11" lengthAdjust="spacingAndGlyphs" textLength="228" x="915" y="164.8198">-koerperschaftssteuerpflichtig : boolean</text><text fill="#000000" font-family="sans-serif" font-size="11" lengthAdjust="spacingAndGlyphs" textLength="106" x="915" y="177.6245">-einkommen : long</text><text fill="#000000" font-family="sans-serif" font-size="11" lengthAdjust="spacingAndGlyphs" textLength="82" x="915" y="190.4292">-name : String</text><text fill="#000000" font-family="sans-serif" font-size="11" lengthAdjust="spacingAndGlyphs" textLength="111" x="915" y="203.2339">+getKlasse : String</text><line style="stroke: #A80036; stroke-width: 1.5;" x1="910" x2="1182" y1="209.8281" y2="209.8281"/><text fill="#000000" font-family="sans-serif" font-size="11" lengthAdjust="spacingAndGlyphs" textLength="133" x="915" y="224.0386">+getEinkommen(): long</text><text fill="#000000" font-family="sans-serif" font-size="11" lengthAdjust="spacingAndGlyphs" textLength="160" x="915" y="236.8433">+setEinkommen(long) : void</text><text fill="#000000" font-family="sans-serif" font-size="11" lengthAdjust="spacingAndGlyphs" textLength="154" x="915" y="249.6479">+getPersonName() : String</text><text fill="#000000" font-family="sans-serif" font-size="11" lengthAdjust="spacingAndGlyphs" textLength="177" x="915" y="262.4526">+setPersonName(String) : void</text><text fill="#000000" font-family="sans-serif" font-size="11" lengthAdjust="spacingAndGlyphs" textLength="238" x="915" y="275.2573">+isEinkommenssteuerpflichtig() : boolean</text><text fill="#000000" font-family="sans-serif" font-size="11" lengthAdjust="spacingAndGlyphs" textLength="216" x="915" y="288.062">+isGewerbesteuerpflichtig() : boolean</text><text fill="#000000" font-family="sans-serif" font-size="11" lengthAdjust="spacingAndGlyphs" textLength="245" x="915" y="300.8667">+isKoerperschaftsteuerpflichtig() : boolean</text><text fill="#000000" font-family="sans-serif" font-size="11" lengthAdjust="spacingAndGlyphs" textLength="114" x="915" y="313.6714">+getName() : String</text><text fill="#000000" font-family="sans-serif" font-size="11" lengthAdjust="spacingAndGlyphs" textLength="239" x="915" y="326.4761">+getEinkommensteuerpflichtig() : boolean</text><text fill="#000000" font-family="sans-serif" font-size="11" lengthAdjust="spacingAndGlyphs" textLength="262" x="915" y="339.2808">+setEinkommensteuerpflichtig(boolean) : void</text><!--class Kaempfer--><rect fill="#FEFECE" filter="url(#f70e9k29whrdu)" height="60.8047" id="Kaempfer" style="stroke: #A80036; stroke-width: 1.5;" width="152" x="1498" y="625.5"/><ellipse cx="1540" cy="641.5" fill="#B4A7E5" rx="11" ry="11" style="stroke: #A80036; stroke-width: 1.0;"/><path d="M1540.9531,638.2813 L1540.9531,644.7969 L1542.6719,644.7969 C1543.125,644.7969 1543.2656,644.8281 1543.4375,644.9531 C1543.6719,645.125 1543.7813,645.375 1543.7813,645.6563 C1543.7813,646.2188 1543.4219,646.5 1542.6719,646.5 L1537.5313,646.5 C1537.125,646.5 1536.9219,646.4531 1536.7656,646.3281 C1536.5469,646.1719 1536.4063,645.9063 1536.4063,645.6563 C1536.4063,645.3594 1536.5625,645.0781 1536.8125,644.9219 C1536.9688,644.8125 1537.0938,644.7969 1537.5313,644.7969 L1539.25,644.7969 L1539.25,638.2813 L1537.5313,638.2813 C1537.1094,638.2813 1536.9219,638.25 1536.7656,638.1406 C1536.5469,637.9688 1536.4063,637.7188 1536.4063,637.4375 C1536.4063,637.1563 1536.5625,636.8594 1536.8125,636.7031 C1536.9688,636.6094 1537.0938,636.5938 1537.5313,636.5938 L1542.6719,636.5938 C1543.125,636.5938 1543.2656,636.625 1543.4375,636.7344 C1543.6719,636.9063 1543.7813,637.1719 1543.7813,637.4375 C1543.7813,637.7344 1543.6406,638.0156 1543.375,638.1719 C1543.25,638.25 1543.0625,638.2813 1542.6719,638.2813 Z "/><text fill="#000000" font-family="sans-serif" font-size="12" font-style="italic" lengthAdjust="spacingAndGlyphs" textLength="60" x="1560" y="645.6543">Kaempfer</text><line style="stroke: #A80036; stroke-width: 1.5;" x1="1499" x2="1649" y1="657.5" y2="657.5"/><line style="stroke: #A80036; stroke-width: 1.5;" x1="1499" x2="1649" y1="665.5" y2="665.5"/><text fill="#000000" font-family="sans-serif" font-size="11" font-style="italic" lengthAdjust="spacingAndGlyphs" textLength="140" x="1504" y="679.7104">+kaempfe(Mutant) : void</text><!--class Mensch--><rect fill="#FEFECE" filter="url(#f70e9k29whrdu)" height="112.0234" id="Mensch" style="stroke: #A80036; stroke-width: 1.5;" width="133" x="1940.5" y="600"/><ellipse cx="1979.8" cy="616" fill="#A9DCDF" rx="11" ry="11" style="stroke: #A80036; stroke-width: 1.0;"/><path d="M1981.3781,617.8125 L1977.3313,617.8125 L1976.9406,618.7969 L1977.3313,618.7969 C1977.7844,618.7969 1977.925,618.8281 1978.0969,618.9531 C1978.3156,619.125 1978.4406,619.375 1978.4406,619.6563 C1978.4406,619.9375 1978.3,620.2344 1978.0344,620.375 C1977.9094,620.4688 1977.6906,620.5 1977.3313,620.5 L1975.0656,620.5 C1974.3156,620.5 1973.9406,620.2188 1973.9406,619.6563 C1973.9406,619.3594 1974.0969,619.0781 1974.3469,618.9219 C1974.5031,618.8125 1974.6594,618.7969 1975.0813,618.7969 L1977.7219,612.2813 L1976.6438,612.2813 C1976.2063,612.2813 1976.0344,612.25 1975.8625,612.1406 C1975.6438,611.9688 1975.5031,611.7188 1975.5031,611.4375 C1975.5031,611.1563 1975.6594,610.875 1975.9094,610.7031 C1976.0656,610.6094 1976.1906,610.5938 1976.6438,610.5938 L1980.3156,610.5938 L1983.7063,618.7969 C1984.175,618.7969 1984.3313,618.8281 1984.5031,618.9688 C1984.7219,619.125 1984.8625,619.375 1984.8625,619.6563 C1984.8625,619.9375 1984.7063,620.2344 1984.4563,620.375 C1984.3156,620.4688 1984.0969,620.5 1983.7375,620.5 L1981.3781,620.5 C1980.9563,620.5 1980.7531,620.4531 1980.6125,620.3281 C1980.3938,620.1719 1980.2531,619.9219 1980.2531,619.6563 C1980.2531,619.3594 1980.4094,619.0781 1980.6594,618.9219 C1980.8156,618.8125 1980.925,618.7969 1981.3781,618.7969 L1981.7688,618.7969 Z M1980.675,616.1094 L1979.3469,612.8438 L1978.0031,616.1094 Z "/><text fill="#000000" font-family="sans-serif" font-size="12" font-style="italic" lengthAdjust="spacingAndGlyphs" textLength="47" x="1999.2" y="620.1543">Mensch</text><line style="stroke: #A80036; stroke-width: 1.5;" x1="1941.5" x2="2072.5" y1="632" y2="632"/><text fill="#000000" font-family="sans-serif" font-size="11" lengthAdjust="spacingAndGlyphs" textLength="67" x="1946.5" y="646.2104">-job : String</text><text fill="#000000" font-family="sans-serif" font-size="11" lengthAdjust="spacingAndGlyphs" textLength="56" x="1946.5" y="659.0151">-alter : int</text><line style="stroke: #A80036; stroke-width: 1.5;" x1="1941.5" x2="2072.5" y1="665.6094" y2="665.6094"/><text fill="#000000" font-family="sans-serif" font-size="11" lengthAdjust="spacingAndGlyphs" textLength="94" x="1946.5" y="679.8198">+getJob(): String</text><text fill="#000000" font-family="sans-serif" font-size="11" lengthAdjust="spacingAndGlyphs" textLength="121" x="1946.5" y="692.6245">+setJob(String) : void</text><text fill="#000000" font-family="sans-serif" font-size="11" lengthAdjust="spacingAndGlyphs" textLength="87" x="1946.5" y="705.4292">+getAlter() : int</text><!--class Buerger--><rect fill="#FEFECE" filter="url(#f70e9k29whrdu)" height="60.8047" id="Buerger" style="stroke: #A80036; stroke-width: 1.5;" width="170" x="1922" y="868"/><ellipse cx="1977.75" cy="884" fill="#ADD1B2" rx="11" ry="11" style="stroke: #A80036; stroke-width: 1.0;"/><path d="M1980.0938,879.6719 L1980.2656,879.75 C1980.4844,879.4375 1980.6875,879.3438 1980.9844,879.3438 C1981.2813,879.3438 1981.5625,879.4844 1981.7188,879.75 C1981.8125,879.9063 1981.8281,880.0313 1981.8281,880.4688 L1981.8281,881.8906 C1981.8281,882.3125 1981.7969,882.5 1981.6875,882.6563 C1981.5156,882.875 1981.25,883.0156 1980.9844,883.0156 C1980.7656,883.0156 1980.5313,882.9063 1980.3906,882.7656 C1980.25,882.6406 1980.2188,882.5156 1980.1563,882.1094 C1980.0625,881.7031 1979.8906,881.4844 1979.4063,881.2031 C1978.9375,880.9531 1978.3281,880.7969 1977.75,880.7969 C1976.0156,880.7969 1974.7656,882.1094 1974.7656,883.8906 L1974.7656,884.9844 C1974.7656,886.6875 1976.0625,887.7813 1978.1094,887.7813 C1978.875,887.7813 1979.5625,887.6563 1979.9844,887.3906 C1980.1719,887.2969 1980.1719,887.2969 1980.625,886.8125 C1980.8125,886.625 1981.0156,886.5469 1981.2344,886.5469 C1981.7031,886.5469 1982.0938,886.9375 1982.0938,887.3906 C1982.0938,887.7813 1981.7656,888.2344 1981.1875,888.6406 C1980.4375,889.1875 1979.2813,889.4844 1978.0625,889.4844 C1975.1719,889.4844 1973.0625,887.5938 1973.0625,885.0156 L1973.0625,883.8906 C1973.0625,881.1719 1975.0625,879.0938 1977.6875,879.0938 C1978.5625,879.0938 1979.1563,879.2344 1980.0938,879.6719 Z "/><text fill="#000000" font-family="sans-serif" font-size="12" lengthAdjust="spacingAndGlyphs" textLength="50" x="1998.25" y="888.1543">Buerger</text><line style="stroke: #A80036; stroke-width: 1.5;" x1="1923" x2="2091" y1="900" y2="900"/><line style="stroke: #A80036; stroke-width: 1.5;" x1="1923" x2="2091" y1="908" y2="908"/><text fill="#000000" font-family="sans-serif" font-size="11" lengthAdjust="spacingAndGlyphs" textLength="158" x="1928" y="922.2104">+meldeAnFinanzamt() : void</text><!--class Richter--><rect fill="#FEFECE" filter="url(#f70e9k29whrdu)" height="99.2188" id="Richter" style="stroke: #A80036; stroke-width: 1.5;" width="171" x="2127.5" y="849"/><ellipse cx="2186.75" cy="865" fill="#ADD1B2" rx="11" ry="11" style="stroke: #A80036; stroke-width: 1.0;"/><path d="M2189.0938,860.6719 L2189.2656,860.75 C2189.4844,860.4375 2189.6875,860.3438 2189.9844,860.3438 C2190.2813,860.3438 2190.5625,860.4844 2190.7188,860.75 C2190.8125,860.9063 2190.8281,861.0313 2190.8281,861.4688 L2190.8281,862.8906 C2190.8281,863.3125 2190.7969,863.5 2190.6875,863.6563 C2190.5156,863.875 2190.25,864.0156 2189.9844,864.0156 C2189.7656,864.0156 2189.5313,863.9063 2189.3906,863.7656 C2189.25,863.6406 2189.2188,863.5156 2189.1563,863.1094 C2189.0625,862.7031 2188.8906,862.4844 2188.4063,862.2031 C2187.9375,861.9531 2187.3281,861.7969 2186.75,861.7969 C2185.0156,861.7969 2183.7656,863.1094 2183.7656,864.8906 L2183.7656,865.9844 C2183.7656,867.6875 2185.0625,868.7813 2187.1094,868.7813 C2187.875,868.7813 2188.5625,868.6563 2188.9844,868.3906 C2189.1719,868.2969 2189.1719,868.2969 2189.625,867.8125 C2189.8125,867.625 2190.0156,867.5469 2190.2344,867.5469 C2190.7031,867.5469 2191.0938,867.9375 2191.0938,868.3906 C2191.0938,868.7813 2190.7656,869.2344 2190.1875,869.6406 C2189.4375,870.1875 2188.2813,870.4844 2187.0625,870.4844 C2184.1719,870.4844 2182.0625,868.5938 2182.0625,866.0156 L2182.0625,864.8906 C2182.0625,862.1719 2184.0625,860.0938 2186.6875,860.0938 C2187.5625,860.0938 2188.1563,860.2344 2189.0938,860.6719 Z "/><text fill="#000000" font-family="sans-serif" font-size="12" lengthAdjust="spacingAndGlyphs" textLength="44" x="2207.25" y="869.1543">Richter</text><line style="stroke: #A80036; stroke-width: 1.5;" x1="2128.5" x2="2297.5" y1="881" y2="881"/><text fill="#000000" font-family="sans-serif" font-size="11" lengthAdjust="spacingAndGlyphs" textLength="102" x="2133.5" y="895.2104">-korrupt : boolean</text><line style="stroke: #A80036; stroke-width: 1.5;" x1="2128.5" x2="2297.5" y1="901.8047" y2="901.8047"/><text fill="#000000" font-family="sans-serif" font-size="11" lengthAdjust="spacingAndGlyphs" textLength="159" x="2133.5" y="916.0151">+verurteilen(Schurke) : void</text><text fill="#000000" font-family="sans-serif" font-size="11" lengthAdjust="spacingAndGlyphs" textLength="126" x="2133.5" y="928.8198">+isKorrupt() : boolean</text><text fill="#000000" font-family="sans-serif" font-size="11" lengthAdjust="spacingAndGlyphs" textLength="157" x="2133.5" y="941.6245">+setKorrupt(boolean) : void</text><!--class Einwohner--><rect fill="#FEFECE" filter="url(#f70e9k29whrdu)" height="73.6094" id="Einwohner" style="stroke: #A80036; stroke-width: 1.5;" width="126" x="1717" y="421"/><ellipse cx="1744.6" cy="437" fill="#A9DCDF" rx="11" ry="11" style="stroke: #A80036; stroke-width: 1.0;"/><path d="M1746.1781,438.8125 L1742.1313,438.8125 L1741.7406,439.7969 L1742.1313,439.7969 C1742.5844,439.7969 1742.725,439.8281 1742.8969,439.9531 C1743.1156,440.125 1743.2406,440.375 1743.2406,440.6563 C1743.2406,440.9375 1743.1,441.2344 1742.8344,441.375 C1742.7094,441.4688 1742.4906,441.5 1742.1313,441.5 L1739.8656,441.5 C1739.1156,441.5 1738.7406,441.2188 1738.7406,440.6563 C1738.7406,440.3594 1738.8969,440.0781 1739.1469,439.9219 C1739.3031,439.8125 1739.4594,439.7969 1739.8813,439.7969 L1742.5219,433.2813 L1741.4438,433.2813 C1741.0063,433.2813 1740.8344,433.25 1740.6625,433.1406 C1740.4438,432.9688 1740.3031,432.7188 1740.3031,432.4375 C1740.3031,432.1563 1740.4594,431.875 1740.7094,431.7031 C1740.8656,431.6094 1740.9906,431.5938 1741.4438,431.5938 L1745.1156,431.5938 L1748.5063,439.7969 C1748.975,439.7969 1749.1313,439.8281 1749.3031,439.9688 C1749.5219,440.125 1749.6625,440.375 1749.6625,440.6563 C1749.6625,440.9375 1749.5063,441.2344 1749.2563,441.375 C1749.1156,441.4688 1748.8969,441.5 1748.5375,441.5 L1746.1781,441.5 C1745.7563,441.5 1745.5531,441.4531 1745.4125,441.3281 C1745.1938,441.1719 1745.0531,440.9219 1745.0531,440.6563 C1745.0531,440.3594 1745.2094,440.0781 1745.4594,439.9219 C1745.6156,439.8125 1745.725,439.7969 1746.1781,439.7969 L1746.5688,439.7969 Z M1745.475,437.1094 L1744.1469,433.8438 L1742.8031,437.1094 Z "/><text fill="#000000" font-family="sans-serif" font-size="12" font-style="italic" lengthAdjust="spacingAndGlyphs" textLength="66" x="1761.4" y="441.1543">Einwohner</text><line style="stroke: #A80036; stroke-width: 1.5;" x1="1718" x2="1842" y1="453" y2="453"/><text fill="#000000" font-family="sans-serif" font-size="11" lengthAdjust="spacingAndGlyphs" textLength="100" x="1723" y="467.2104">-vorname : String</text><line style="stroke: #A80036; stroke-width: 1.5;" x1="1718" x2="1842" y1="473.8047" y2="473.8047"/><text fill="#000000" font-family="sans-serif" font-size="11" lengthAdjust="spacingAndGlyphs" textLength="114" x="1723" y="488.0151">+getName() : String</text><!--class Mutant--><rect fill="#FEFECE" filter="url(#f70e9k29whrdu)" height="99.2188" id="Mutant" style="stroke: #A80036; stroke-width: 1.5;" width="175" x="1692.5" y="606.5"/><ellipse cx="1753.75" cy="622.5" fill="#A9DCDF" rx="11" ry="11" style="stroke: #A80036; stroke-width: 1.0;"/><path d="M1755.3281,624.3125 L1751.2813,624.3125 L1750.8906,625.2969 L1751.2813,625.2969 C1751.7344,625.2969 1751.875,625.3281 1752.0469,625.4531 C1752.2656,625.625 1752.3906,625.875 1752.3906,626.1563 C1752.3906,626.4375 1752.25,626.7344 1751.9844,626.875 C1751.8594,626.9688 1751.6406,627 1751.2813,627 L1749.0156,627 C1748.2656,627 1747.8906,626.7188 1747.8906,626.1563 C1747.8906,625.8594 1748.0469,625.5781 1748.2969,625.4219 C1748.4531,625.3125 1748.6094,625.2969 1749.0313,625.2969 L1751.6719,618.7813 L1750.5938,618.7813 C1750.1563,618.7813 1749.9844,618.75 1749.8125,618.6406 C1749.5938,618.4688 1749.4531,618.2188 1749.4531,617.9375 C1749.4531,617.6563 1749.6094,617.375 1749.8594,617.2031 C1750.0156,617.1094 1750.1406,617.0938 1750.5938,617.0938 L1754.2656,617.0938 L1757.6563,625.2969 C1758.125,625.2969 1758.2813,625.3281 1758.4531,625.4688 C1758.6719,625.625 1758.8125,625.875 1758.8125,626.1563 C1758.8125,626.4375 1758.6563,626.7344 1758.4063,626.875 C1758.2656,626.9688 1758.0469,627 1757.6875,627 L1755.3281,627 C1754.9063,627 1754.7031,626.9531 1754.5625,626.8281 C1754.3438,626.6719 1754.2031,626.4219 1754.2031,626.1563 C1754.2031,625.8594 1754.3594,625.5781 1754.6094,625.4219 C1754.7656,625.3125 1754.875,625.2969 1755.3281,625.2969 L1755.7188,625.2969 Z M1754.625,622.6094 L1753.2969,619.3438 L1751.9531,622.6094 Z "/><text fill="#000000" font-family="sans-serif" font-size="12" font-style="italic" lengthAdjust="spacingAndGlyphs" textLength="44" x="1774.25" y="626.6543">Mutant</text><line style="stroke: #A80036; stroke-width: 1.5;" x1="1693.5" x2="1866.5" y1="638.5" y2="638.5"/><text fill="#000000" font-family="sans-serif" font-size="11" lengthAdjust="spacingAndGlyphs" textLength="105" x="1698.5" y="652.7104">#mutation : String</text><text fill="#000000" font-family="sans-serif" font-size="11" lengthAdjust="spacingAndGlyphs" textLength="136" x="1698.5" y="665.5151">#superkraefte : String[]</text><line style="stroke: #A80036; stroke-width: 1.5;" x1="1693.5" x2="1866.5" y1="672.1094" y2="672.1094"/><text fill="#000000" font-family="sans-serif" font-size="11" font-style="italic" lengthAdjust="spacingAndGlyphs" textLength="129" x="1698.5" y="686.3198">+setSuperkraft() : void</text><text fill="#000000" font-family="sans-serif" font-size="11" lengthAdjust="spacingAndGlyphs" textLength="163" x="1698.5" y="699.1245">+getSuperkraefte() : String[]</text><!--class Schurke--><rect fill="#FEFECE" filter="url(#f70e9k29whrdu)" height="163.2422" id="Schurke" style="stroke: #A80036; stroke-width: 1.5;" width="193" x="1470.5" y="817"/><ellipse cx="1537.25" cy="833" fill="#ADD1B2" rx="11" ry="11" style="stroke: #A80036; stroke-width: 1.0;"/><path d="M1539.5938,828.6719 L1539.7656,828.75 C1539.9844,828.4375 1540.1875,828.3438 1540.4844,828.3438 C1540.7813,828.3438 1541.0625,828.4844 1541.2188,828.75 C1541.3125,828.9063 1541.3281,829.0313 1541.3281,829.4688 L1541.3281,830.8906 C1541.3281,831.3125 1541.2969,831.5 1541.1875,831.6563 C1541.0156,831.875 1540.75,832.0156 1540.4844,832.0156 C1540.2656,832.0156 1540.0313,831.9063 1539.8906,831.7656 C1539.75,831.6406 1539.7188,831.5156 1539.6563,831.1094 C1539.5625,830.7031 1539.3906,830.4844 1538.9063,830.2031 C1538.4375,829.9531 1537.8281,829.7969 1537.25,829.7969 C1535.5156,829.7969 1534.2656,831.1094 1534.2656,832.8906 L1534.2656,833.9844 C1534.2656,835.6875 1535.5625,836.7813 1537.6094,836.7813 C1538.375,836.7813 1539.0625,836.6563 1539.4844,836.3906 C1539.6719,836.2969 1539.6719,836.2969 1540.125,835.8125 C1540.3125,835.625 1540.5156,835.5469 1540.7344,835.5469 C1541.2031,835.5469 1541.5938,835.9375 1541.5938,836.3906 C1541.5938,836.7813 1541.2656,837.2344 1540.6875,837.6406 C1539.9375,838.1875 1538.7813,838.4844 1537.5625,838.4844 C1534.6719,838.4844 1532.5625,836.5938 1532.5625,834.0156 L1532.5625,832.8906 C1532.5625,830.1719 1534.5625,828.0938 1537.1875,828.0938 C1538.0625,828.0938 1538.6563,828.2344 1539.5938,828.6719 Z "/><text fill="#000000" font-family="sans-serif" font-size="12" lengthAdjust="spacingAndGlyphs" textLength="51" x="1557.75" y="837.1543">Schurke</text><line style="stroke: #A80036; stroke-width: 1.5;" x1="1471.5" x2="1662.5" y1="849" y2="849"/><text fill="#000000" font-family="sans-serif" font-size="11" lengthAdjust="spacingAndGlyphs" textLength="127" x="1476.5" y="863.2104">-eingesperrt : boolean</text><text fill="#000000" font-family="sans-serif" font-size="11" lengthAdjust="spacingAndGlyphs" textLength="108" x="1476.5" y="876.0151">-schuldig : boolean</text><line style="stroke: #A80036; stroke-width: 1.5;" x1="1471.5" x2="1662.5" y1="882.6094" y2="882.6094"/><text fill="#000000" font-family="sans-serif" font-size="11" lengthAdjust="spacingAndGlyphs" textLength="176" x="1476.5" y="896.8198">+setSuperkraft(String...) : void</text><text fill="#000000" font-family="sans-serif" font-size="11" lengthAdjust="spacingAndGlyphs" textLength="158" x="1476.5" y="909.6245">+meldeAnFinanzamt() : void</text><text fill="#000000" font-family="sans-serif" font-size="11" lengthAdjust="spacingAndGlyphs" textLength="139" x="1476.5" y="922.4292">+kaempfe(Mutant) : void</text><text fill="#000000" font-family="sans-serif" font-size="11" lengthAdjust="spacingAndGlyphs" textLength="110" x="1476.5" y="935.2339">+isSchuldig() : void</text><text fill="#000000" font-family="sans-serif" font-size="11" lengthAdjust="spacingAndGlyphs" textLength="128" x="1476.5" y="948.0386">+isEingesperrt() : void</text><text fill="#000000" font-family="sans-serif" font-size="11" lengthAdjust="spacingAndGlyphs" textLength="163" x="1476.5" y="960.8433">+setSchuldig(boolean) : void</text><text fill="#000000" font-family="sans-serif" font-size="11" lengthAdjust="spacingAndGlyphs" textLength="181" x="1476.5" y="973.6479">+setEingesperrt(boolean) : void</text><!--class Superheld--><rect fill="#FEFECE" filter="url(#f70e9k29whrdu)" height="73.6094" id="Superheld" style="stroke: #A80036; stroke-width: 1.5;" width="188" x="1699" y="861.5"/><ellipse cx="1756.75" cy="877.5" fill="#ADD1B2" rx="11" ry="11" style="stroke: #A80036; stroke-width: 1.0;"/><path d="M1759.0938,873.1719 L1759.2656,873.25 C1759.4844,872.9375 1759.6875,872.8438 1759.9844,872.8438 C1760.2813,872.8438 1760.5625,872.9844 1760.7188,873.25 C1760.8125,873.4063 1760.8281,873.5313 1760.8281,873.9688 L1760.8281,875.3906 C1760.8281,875.8125 1760.7969,876 1760.6875,876.1563 C1760.5156,876.375 1760.25,876.5156 1759.9844,876.5156 C1759.7656,876.5156 1759.5313,876.4063 1759.3906,876.2656 C1759.25,876.1406 1759.2188,876.0156 1759.1563,875.6094 C1759.0625,875.2031 1758.8906,874.9844 1758.4063,874.7031 C1757.9375,874.4531 1757.3281,874.2969 1756.75,874.2969 C1755.0156,874.2969 1753.7656,875.6094 1753.7656,877.3906 L1753.7656,878.4844 C1753.7656,880.1875 1755.0625,881.2813 1757.1094,881.2813 C1757.875,881.2813 1758.5625,881.1563 1758.9844,880.8906 C1759.1719,880.7969 1759.1719,880.7969 1759.625,880.3125 C1759.8125,880.125 1760.0156,880.0469 1760.2344,880.0469 C1760.7031,880.0469 1761.0938,880.4375 1761.0938,880.8906 C1761.0938,881.2813 1760.7656,881.7344 1760.1875,882.1406 C1759.4375,882.6875 1758.2813,882.9844 1757.0625,882.9844 C1754.1719,882.9844 1752.0625,881.0938 1752.0625,878.5156 L1752.0625,877.3906 C1752.0625,874.6719 1754.0625,872.5938 1756.6875,872.5938 C1757.5625,872.5938 1758.1563,872.7344 1759.0938,873.1719 Z "/><text fill="#000000" font-family="sans-serif" font-size="12" lengthAdjust="spacingAndGlyphs" textLength="64" x="1777.25" y="881.6543">Superheld</text><line style="stroke: #A80036; stroke-width: 1.5;" x1="1700" x2="1886" y1="893.5" y2="893.5"/><line style="stroke: #A80036; stroke-width: 1.5;" x1="1700" x2="1886" y1="901.5" y2="901.5"/><text fill="#000000" font-family="sans-serif" font-size="11" lengthAdjust="spacingAndGlyphs" textLength="176" x="1705" y="915.7104">+setSuperkraft(String...) : void</text><text fill="#000000" font-family="sans-serif" font-size="11" lengthAdjust="spacingAndGlyphs" textLength="139" x="1705" y="928.5151">+kaempfe(Mutant) : void</text><path d="M365.5,430.5 L365.5,485.8984 A0,0 0 0 0 365.5,485.8984 L671.731,485.8984 L759.822,554.804 L679.731,485.8984 L920.5,485.8984 A0,0 0 0 0 920.5,485.8984 L920.5,440.5 L910.5,430.5 L365.5,430.5 A0,0 0 0 0 365.5,430.5 " fill="#FBFB77" filter="url(#f70e9k29whrdu)" style="stroke: #A80036; stroke-width: 1.0;"/><path d="M910.5,430.5 L910.5,440.5 L920.5,440.5 L910.5,430.5 " fill="#FBFB77" style="stroke: #A80036; stroke-width: 1.0;"/><text fill="#000000" font-family="sans-serif" font-size="13" lengthAdjust="spacingAndGlyphs" textLength="534" x="371.5" y="447.5669">berechneGesamtsteuerFuerPersonen berechnet alle Steuern für mehrere Personen</text><text fill="#000000" font-family="sans-serif" font-size="13" lengthAdjust="spacingAndGlyphs" textLength="399" x="371.5" y="462.6997">berechneGesamtsteuer berechnet alle Steuern von Metropolis</text><text fill="#000000" font-family="sans-serif" font-size="13" lengthAdjust="spacingAndGlyphs" textLength="313" x="371.5" y="477.8325">Es soll nur ein einziges Finanzamt erstellt werden</text><path d="M712,8 L712,33.1328 A0,0 0 0 0 712,33.1328 L1042,33.1328 L1046,92.62 L1050,33.1328 L1380,33.1328 A0,0 0 0 0 1380,33.1328 L1380,18 L1370,8 L712,8 A0,0 0 0 0 712,8 " fill="#FBFB77" filter="url(#f70e9k29whrdu)" style="stroke: #A80036; stroke-width: 1.0;"/><path d="M1370,8 L1370,18 L1380,18 L1370,8 " fill="#FBFB77" style="stroke: #A80036; stroke-width: 1.0;"/><text fill="#000000" font-family="sans-serif" font-size="13" lengthAdjust="spacingAndGlyphs" textLength="647" x="718" y="25.0669">Im Kontruktor soll jeweils entschieden werden welche Steuer für diese Person true gesetzt werden soll</text><path d="M956,438 L956,478.2656 A0,0 0 0 0 956,478.2656 L1190.85,478.2656 L1178.33,625.302 L1198.85,478.2656 L1438,478.2656 A0,0 0 0 0 1438,478.2656 L1438,448 L1428,438 L956,438 A0,0 0 0 0 956,438 " fill="#FBFB77" filter="url(#f70e9k29whrdu)" style="stroke: #A80036; stroke-width: 1.0;"/><path d="M1428,438 L1428,448 L1438,448 L1428,438 " fill="#FBFB77" style="stroke: #A80036; stroke-width: 1.0;"/><text fill="#000000" font-family="sans-serif" font-size="13" lengthAdjust="spacingAndGlyphs" textLength="461" x="962" y="455.0669">meldeAnFinanzamt() soll setEinkommenssteuerpflichtig implementieren</text><text fill="#000000" font-family="sans-serif" font-size="13" lengthAdjust="spacingAndGlyphs" textLength="338" x="962" y="470.1997">Person wird zur ArrayList steuerpflichtige hinzugefügt</text><!--link Unternehmen to Kapitalgesellschaft--><path d="M261.03,942.049 C252.982,970.655 242.295,1008.644 233.584,1039.605 " fill="none" id="Unternehmen-Kapitalgesellschaft" style="stroke: #A80036; stroke-width: 1.0;"/><polygon fill="none" points="254.32,940.051,266.475,922.694,267.797,943.842,254.32,940.051" style="stroke: #A80036; stroke-width: 1.0;"/><!--link Organisation to Unternehmen--><path d="M303.918,706.84 C295.593,758.176 282.982,835.944 276.753,874.356 " fill="none" id="Organisation-Unternehmen" style="stroke: #A80036; stroke-width: 1.0;"/><polygon fill="none" points="297.028,705.595,307.139,686.973,310.848,707.836,297.028,705.595" style="stroke: #A80036; stroke-width: 1.0;"/><!--link Person to Organisation--><path d="M888.639,235.239 C705.617,255.798 419.379,299.678 348,378 C284.956,447.176 296.509,569.488 306.013,625.498 " fill="none" id="Person-Organisation" style="stroke: #A80036; stroke-width: 1.0;"/><polygon fill="none" points="888.124,228.253,908.77,233.025,889.655,242.169,888.124,228.253" style="stroke: #A80036; stroke-width: 1.0;"/><!--link Unternehmen to Personengesellschaft--><path d="M296.659,939.838 C310.195,960.659 328.536,985.5 349,1004 C363.421,1017.037 380.006,1029.096 396.863,1039.887 " fill="none" id="Unternehmen-Personengesellschaft" style="stroke: #A80036; stroke-width: 1.0;"/><polygon fill="none" points="290.702,943.514,286.069,922.837,302.585,936.112,290.702,943.514" style="stroke: #A80036; stroke-width: 1.0;"/><!--link Organisation to Syndikat--><path d="M347.615,702.804 C378.496,742.52 423.265,800.098 456.109,842.339 " fill="none" id="Organisation-Syndikat" style="stroke: #A80036; stroke-width: 1.0;"/><polygon fill="none" points="342.056,707.059,335.306,686.973,353.108,698.465,342.056,707.059" style="stroke: #A80036; stroke-width: 1.0;"/><!--link Person to Einwohner--><path d="M1202.3,270.861 C1362.33,322.422 1603.18,400.027 1716.63,436.58 " fill="none" id="Person-Einwohner" style="stroke: #A80036; stroke-width: 1.0;"/><polygon fill="none" points="1200.09,277.503,1183.2,264.706,1204.38,264.177,1200.09,277.503" style="stroke: #A80036; stroke-width: 1.0;"/><!--link Einwohner to Mensch--><path d="M1860.81,495.568 C1869.28,500.624 1877.52,506.12 1885,512 C1916.69,536.9 1946.2,571.056 1968.25,599.742 " fill="none" id="Einwohner-Mensch" style="stroke: #A80036; stroke-width: 1.0;"/><polygon fill="none" points="1857.34,501.652,1843.26,485.823,1864.14,489.413,1857.34,501.652" style="stroke: #A80036; stroke-width: 1.0;"/><!--link Mensch to Buerger--><path d="M2007,732.408 C2007,778.251 2007,834.244 2007,867.826 " fill="none" id="Mensch-Buerger" style="stroke: #A80036; stroke-width: 1.0;"/><polygon fill="none" points="2000,732.176,2007,712.176,2014,732.176,2000,732.176" style="stroke: #A80036; stroke-width: 1.0;"/><!--link Mensch to Richter--><path d="M2067.36,727.466 C2100.72,766.421 2141.34,813.841 2171.2,848.697 " fill="none" id="Mensch-Richter" style="stroke: #A80036; stroke-width: 1.0;"/><polygon fill="none" points="2061.95,731.919,2054.26,712.176,2072.59,722.811,2061.95,731.919" style="stroke: #A80036; stroke-width: 1.0;"/><!--link Einwohner to Mutant--><path d="M1780,515.538 C1780,544.22 1780,578.712 1780,606.218 " fill="none" id="Einwohner-Mutant" style="stroke: #A80036; stroke-width: 1.0;"/><polygon fill="none" points="1773,515.407,1780,495.407,1787,515.407,1773,515.407" style="stroke: #A80036; stroke-width: 1.0;"/><!--link Mutant to Schurke--><path d="M1723.41,720.898 C1697.37,750.294 1666.2,785.494 1638.56,816.706 " fill="none" id="Mutant-Schurke" style="stroke: #A80036; stroke-width: 1.0;"/><polygon fill="none" points="1718.4,716,1736.9,705.669,1728.88,725.282,1718.4,716" style="stroke: #A80036; stroke-width: 1.0;"/><!--link Mutant to Superheld--><path d="M1783.71,725.698 C1786.1,769.936 1789.12,825.655 1791.05,861.43 " fill="none" id="Mutant-Superheld" style="stroke: #A80036; stroke-width: 1.0;"/><polygon fill="none" points="1776.72,726.017,1782.63,705.669,1790.7,725.262,1776.72,726.017" style="stroke: #A80036; stroke-width: 1.0;"/><!--link Steuerzahler to Syndikat--><path d="M1147.66,703.589 C1129.55,730.333 1103.37,762.233 1072,781 C936.208,862.234 753.344,887.735 631.075,895.256 " fill="none" id="Steuerzahler-Syndikat" style="stroke: #A80036; stroke-width: 1.0; stroke-dasharray: 7.0,7.0;"/><polygon fill="none" points="1141.92,699.574,1158.62,686.536,1153.69,707.145,1141.92,699.574" style="stroke: #A80036; stroke-width: 1.0;"/><!--link Steuerzahler to Unternehmen--><path d="M1149.53,703.908 C1131.75,731.588 1105.26,764.366 1072,781 C928.121,852.949 495.091,749.655 349,817 C322.469,829.23 300.65,855.317 287.302,874.493 " fill="none" id="Steuerzahler-Unternehmen" style="stroke: #A80036; stroke-width: 1.0; stroke-dasharray: 7.0,7.0;"/><polygon fill="none" points="1143.6,700.175,1159.94,686.676,1155.59,707.414,1143.6,700.175" style="stroke: #A80036; stroke-width: 1.0;"/><!--link Steuerzahler to Buerger--><path d="M1244.75,695.979 C1299.79,724.742 1379.46,762.045 1454,781 C1648.45,830.45 1717.06,744.145 1904,817 C1932.34,828.043 1959.23,849.581 1978.42,867.602 " fill="none" id="Steuerzahler-Buerger" style="stroke: #A80036; stroke-width: 1.0; stroke-dasharray: 7.0,7.0;"/><polygon fill="none" points="1241.45,702.154,1227.07,686.591,1248.02,689.789,1241.45,702.154" style="stroke: #A80036; stroke-width: 1.0;"/><!--link Steuerzahler to Schurke--><path d="M1240.65,697.276 C1303.42,735.788 1398.82,794.321 1470.29,838.169 " fill="none" id="Steuerzahler-Schurke" style="stroke: #A80036; stroke-width: 1.0; stroke-dasharray: 7.0,7.0;"/><polygon fill="none" points="1236.85,703.157,1223.46,686.731,1244.17,691.224,1236.85,703.157" style="stroke: #A80036; stroke-width: 1.0;"/><!--link Kaempfer to Schurke--><path d="M1572.54,707.155 C1571.62,738.889 1570.4,780.63 1569.34,816.935 " fill="none" id="Kaempfer-Schurke" style="stroke: #A80036; stroke-width: 1.0; stroke-dasharray: 7.0,7.0;"/><polygon fill="none" points="1565.55,706.761,1573.13,686.973,1579.54,707.168,1565.55,706.761" style="stroke: #A80036; stroke-width: 1.0;"/><!--link Kaempfer to Superheld--><path d="M1609.09,702.457 C1628.01,726.354 1652.12,755.829 1675,781 C1700.36,808.909 1730.67,838.761 1754.22,861.259 " fill="none" id="Kaempfer-Superheld" style="stroke: #A80036; stroke-width: 1.0; stroke-dasharray: 7.0,7.0;"/><polygon fill="none" points="1603.45,706.61,1596.61,686.556,1614.46,697.966,1603.45,706.61" style="stroke: #A80036; stroke-width: 1.0;"/><!--
@startuml
skinparam classAttributeIconSize 0


package hsMannheim.pr2.ws2018.grp3.pflichtuebung2.personen.juristischePersonen.stadtverwaltung{
	interface Steuerzahler{
 		 + {static} meldeAnFinanzamt() : void
	}

	class Finanzamt {
   		- {static} steuerpflichtige : ArrayList<Person>
   		+ berechneEinkommenssteuer(Person) : double
   		+ berechneGewerbesteuer(Person) : double
   		+ berechneKoerperschaftssteuer(Person) : double
   		+ berechneGesamtsteuerFuerPersonen(Person...) : double
  		+ berechneSteuerAllerBuerger() : double
  		+ berechneSteuerAllerSchurken() : double
  		+ berechneSteuerAllerOrganisationen() : double
  		+ berechneGesamtsteuer() : double
   		+ {static} setSteuerpflichtige(Person) : void
  		+ {static} getAlleSteuerpflichtigen() : ArrayList<Person> 
  		+ {static} getInstanz() : Finanzamt
	}
}



package hsMannheim.pr2.ws2018.grp3.pflichtuebung2.personen.juristischePersonen{
	class Kapitalgesellschaft{
   		- gesellschafter : ArrayList<Person>
   		+ meldeAnFinanzamt() : void 
   		+ setGesellschafter(Buerger...) : void
   		+ getGesellschafter() : Buerger[]
                + setInhaberausgetreten(Buerger...) : void
	}

	abstract class Organisation{
   		+ getName() : String
	}

	class Personengesellschaft{
   		- inhaber: ArrayList<Person> 
   		+ meldeAnFinanzamt() : void 
   		+ setGesellschafter(Buerger...) : void
   		+ getGesellschafter() : Buerger[]
                + setInhaberausgetreten(Buerger...) : void
	}


	abstract class Unternehmen{
	}

	class Syndikat{
   		- mitglieder: ArrayList<Person> 
   		+ setMitglieder(Schurke...) : void
   		+ getMitglieder() : Schurke[]
   		+ meldeAnFinanzamt() : void 
                + setMitgliederausgetreten(Schurke...) : void
	}


}



package hsMannheim.pr2.ws2018.grp3.pflichtuebung2.personen{
	class Person {
   		- einkommensteuerpflichtig : boolean
   		- boolean gewerbesteuerpflichtig : boolean
   		- koerperschaftssteuerpflichtig : boolean 
   		- einkommen : long
   		- name : String
   		+ getEinkommen(): long
   		+ setEinkommen(long) : void
   		+ getPersonName() : String
   		+ setPersonName(String) : void
                + getKlasse : String
   		+ isEinkommenssteuerpflichtig() : boolean 
   		+ isGewerbesteuerpflichtig() : boolean 
   		+ isKoerperschaftsteuerpflichtig() : boolean 
   		+ getName() : String 
   		+ getEinkommensteuerpflichtig() : boolean 
   		+ setEinkommensteuerpflichtig(boolean) : void 
	}
}



package hsMannheim.pr2.ws2018.grp3.pflichtuebung2.personen.natuerlichePersonen{
	interface Kaempfer{
    		+ {abstract}  kaempfe(Mutant) : void
	}


	abstract class Mensch{
   		- job : String
   		- alter : int
   		+ getJob(): String
   		+ setJob(String) : void
   		+ getAlter() : int
	}


	class Buerger{
   		+ meldeAnFinanzamt() : void 
	}


	class Richter{
   		- korrupt : boolean
   		+ verurteilen(Schurke) : void 
   		+ isKorrupt() : boolean
   		+ setKorrupt(boolean) : void
	}


	abstract class Einwohner{
   		- vorname : String
   		+ getName() : String 
	}

	abstract class Mutant{
   		# mutation : String
   		# superkraefte : String[]
   		+ {abstract} setSuperkraft() : void
   		+ getSuperkraefte() : String[]
	}

	class Schurke{
   		- eingesperrt : boolean
   		- schuldig : boolean
   		+ setSuperkraft(String...) : void
   		+ meldeAnFinanzamt() : void
   		+ kaempfe(Mutant) : void
   		+ isSchuldig() : void
   		+ isEingesperrt() : void
   		+ setSchuldig(boolean) : void
   		+ setEingesperrt(boolean) : void
	}

	class Superheld{
  		+ setSuperkraft(String...) : void
  		+ kaempfe(Mutant) : void

	}
}

Unternehmen<|- - Kapitalgesellschaft
Organisation<|- - Unternehmen
Person<|- - Organisation
Unternehmen<|- - Personengesellschaft
Organisation<|- - Syndikat
Person<|- - Einwohner
Einwohner<|- - Mensch
Mensch<|- - Buerger
Mensch<|- - Richter
Einwohner<|- - Mutant
Mutant<|- - Schurke
Mutant<|- - Superheld

Steuerzahler<|.. Syndikat
Steuerzahler<|.. Unternehmen
Steuerzahler<|.. Buerger
Steuerzahler<|.. Schurke
Kaempfer<|.. Schurke
Kaempfer<|.. Superheld

note top of Finanzamt: berechneGesamtsteuerFuerPersonen berechnet alle Steuern für mehrere Personen\nberechneGesamtsteuer berechnet alle Steuern von Metropolis\nEs soll nur ein einziges Finanzamt erstellt werden
note top of Person: Im Kontruktor soll jeweils entschieden werden welche Steuer für diese Person true gesetzt werden soll
note top of Steuerzahler: meldeAnFinanzamt() soll setEinkommenssteuerpflichtig implementieren\nPerson wird zur ArrayList steuerpflichtige hinzugefügt
@enduml

PlantUML version 1.2018.13(Mon Nov 26 17:11:51 UTC 2018)
(GPL source distribution)
Java Runtime: Java(TM) SE Runtime Environment
JVM: Java HotSpot(TM) 64-Bit Server VM
Java Version: 1.7.0_25-b15
Operating System: Linux
Default Encoding: UTF-8
Language: en
Country: US
--></g></svg>