<?xml version="1.0" encoding="UTF-8" standalone="no"?><svg xmlns="http://www.w3.org/2000/svg" xmlns:xlink="http://www.w3.org/1999/xlink" contentScriptType="application/ecmascript" contentStyleType="text/css" height="1166px" preserveAspectRatio="none" style="width:2337px;height:1166px;" version="1.1" viewBox="0 0 2337 1166" width="2337px" zoomAndPan="magnify"><defs><filter height="300%" id="f1rlb1j2gkfsre" width="300%" x="-1" y="-1"><feGaussianBlur result="blurOut" stdDeviation="2.0"/><feColorMatrix in="blurOut" result="blurOut2" type="matrix" values="0 0 0 0 0 0 0 0 0 0 0 0 0 0 0 0 0 0 .4 0"/><feOffset dx="4.0" dy="4.0" in="blurOut2" result="blurOut3"/><feBlend in="SourceGraphic" in2="blurOut3" mode="normal"/></filter></defs><g><!--cluster hsMannheim.pr2.ws2018.grp3.pflichtuebung2.personen.juristischePersonen.stadtverwaltung--><polygon fill="#FFFFFF" filter="url(#f1rlb1j2gkfsre)" points="671,507,1420,507,1427,529.2969,1430,529.2969,1430,772,671,772,671,507" style="stroke: #000000; stroke-width: 1.5;"/><line style="stroke: #000000; stroke-width: 1.5;" x1="671" x2="1427" y1="529.2969" y2="529.2969"/><text fill="#000000" font-family="sans-serif" font-size="14" font-weight="bold" lengthAdjust="spacingAndGlyphs" textLength="743" x="675" y="521.9951">hsMannheim.pr2.ws2018.grp3.pflichtuebung2.personen.juristischePersonen.stadtverwaltung</text><!--cluster hsMannheim.pr2.ws2018.grp3.pflichtuebung2.personen.juristischePersonen--><polygon fill="#FFFFFF" filter="url(#f1rlb1j2gkfsre)" points="22,583.5,637,583.5,644,605.7969,647,605.7969,647,1154,22,1154,22,583.5" style="stroke: #000000; stroke-width: 1.5;"/><line style="stroke: #000000; stroke-width: 1.5;" x1="22" x2="644" y1="605.7969" y2="605.7969"/><text fill="#000000" font-family="sans-serif" font-size="14" font-weight="bold" lengthAdjust="spacingAndGlyphs" textLength="609" x="26" y="598.4951">hsMannheim.pr2.ws2018.grp3.pflichtuebung2.personen.juristischePersonen</text><!--cluster hsMannheim.pr2.ws2018.grp3.pflichtuebung2.personen--><polygon fill="#FFFFFF" filter="url(#f1rlb1j2gkfsre)" points="818,58,1270,58,1277,80.2969,1280,80.2969,1280,349,818,349,818,58" style="stroke: #000000; stroke-width: 1.5;"/><line style="stroke: #000000; stroke-width: 1.5;" x1="818" x2="1277" y1="80.2969" y2="80.2969"/><text fill="#000000" font-family="sans-serif" font-size="14" font-weight="bold" lengthAdjust="spacingAndGlyphs" textLength="446" x="822" y="72.9951">hsMannheim.pr2.ws2018.grp3.pflichtuebung2.personen</text><!--cluster hsMannheim.pr2.ws2018.grp3.pflichtuebung2.personen.natuerlichePersonen--><polygon fill="#FFFFFF" filter="url(#f1rlb1j2gkfsre)" points="1454,373,2076,373,2083,395.2969,2315,395.2969,2315,995,1454,995,1454,373" style="stroke: #000000; stroke-width: 1.5;"/><line style="stroke: #000000; stroke-width: 1.5;" x1="1454" x2="2083" y1="395.2969" y2="395.2969"/><text fill="#000000" font-family="sans-serif" font-size="14" font-weight="bold" lengthAdjust="spacingAndGlyphs" textLength="616" x="1458" y="387.9951">hsMannheim.pr2.ws2018.grp3.pflichtuebung2.personen.natuerlichePersonen</text><!--class Steuerzahler--><rect fill="#FEFECE" filter="url(#f1rlb1j2gkfsre)" height="60.8047" id="Steuerzahler" style="stroke: #A80036; stroke-width: 1.5;" width="170" x="1090" y="618.5"/><ellipse cx="1131.1" cy="634.5" fill="#B4A7E5" rx="11" ry="11" style="stroke: #A80036; stroke-width: 1.0;"/><path d="M1132.0531,631.2813 L1132.0531,637.7969 L1133.7719,637.7969 C1134.225,637.7969 1134.3656,637.8281 1134.5375,637.9531 C1134.7719,638.125 1134.8813,638.375 1134.8813,638.6563 C1134.8813,639.2188 1134.5219,639.5 1133.7719,639.5 L1128.6313,639.5 C1128.225,639.5 1128.0219,639.4531 1127.8656,639.3281 C1127.6469,639.1719 1127.5063,638.9063 1127.5063,638.6563 C1127.5063,638.3594 1127.6625,638.0781 1127.9125,637.9219 C1128.0688,637.8125 1128.1938,637.7969 1128.6313,637.7969 L1130.35,637.7969 L1130.35,631.2813 L1128.6313,631.2813 C1128.2094,631.2813 1128.0219,631.25 1127.8656,631.1406 C1127.6469,630.9688 1127.5063,630.7188 1127.5063,630.4375 C1127.5063,630.1563 1127.6625,629.8594 1127.9125,629.7031 C1128.0688,629.6094 1128.1938,629.5938 1128.6313,629.5938 L1133.7719,629.5938 C1134.225,629.5938 1134.3656,629.625 1134.5375,629.7344 C1134.7719,629.9063 1134.8813,630.1719 1134.8813,630.4375 C1134.8813,630.7344 1134.7406,631.0156 1134.475,631.1719 C1134.35,631.25 1134.1625,631.2813 1133.7719,631.2813 Z "/><text fill="#000000" font-family="sans-serif" font-size="12" font-style="italic" lengthAdjust="spacingAndGlyphs" textLength="80" x="1150.9" y="638.6543">Steuerzahler</text><line style="stroke: #A80036; stroke-width: 1.5;" x1="1091" x2="1259" y1="650.5" y2="650.5"/><line style="stroke: #A80036; stroke-width: 1.5;" x1="1091" x2="1259" y1="658.5" y2="658.5"/><text fill="#000000" font-family="sans-serif" font-size="11" lengthAdjust="spacingAndGlyphs" text-decoration="underline" textLength="158" x="1096" y="672.7104">+meldeAnFinanzamt() : void</text><line style="stroke: #000000; stroke-width: 1.0;" x1="1096" x2="1254" y1="674.7104" y2="674.7104"/><!--class Finanzamt--><rect fill="#FEFECE" filter="url(#f1rlb1j2gkfsre)" height="214.4609" id="Finanzamt" style="stroke: #A80036; stroke-width: 1.5;" width="345" x="709.5" y="542"/><ellipse cx="846.25" cy="558" fill="#ADD1B2" rx="11" ry="11" style="stroke: #A80036; stroke-width: 1.0;"/><path d="M848.5938,553.6719 L848.7656,553.75 C848.9844,553.4375 849.1875,553.3438 849.4844,553.3438 C849.7813,553.3438 850.0625,553.4844 850.2188,553.75 C850.3125,553.9063 850.3281,554.0313 850.3281,554.4688 L850.3281,555.8906 C850.3281,556.3125 850.2969,556.5 850.1875,556.6563 C850.0156,556.875 849.75,557.0156 849.4844,557.0156 C849.2656,557.0156 849.0313,556.9063 848.8906,556.7656 C848.75,556.6406 848.7188,556.5156 848.6563,556.1094 C848.5625,555.7031 848.3906,555.4844 847.9063,555.2031 C847.4375,554.9531 846.8281,554.7969 846.25,554.7969 C844.5156,554.7969 843.2656,556.1094 843.2656,557.8906 L843.2656,558.9844 C843.2656,560.6875 844.5625,561.7813 846.6094,561.7813 C847.375,561.7813 848.0625,561.6563 848.4844,561.3906 C848.6719,561.2969 848.6719,561.2969 849.125,560.8125 C849.3125,560.625 849.5156,560.5469 849.7344,560.5469 C850.2031,560.5469 850.5938,560.9375 850.5938,561.3906 C850.5938,561.7813 850.2656,562.2344 849.6875,562.6406 C848.9375,563.1875 847.7813,563.4844 846.5625,563.4844 C843.6719,563.4844 841.5625,561.5938 841.5625,559.0156 L841.5625,557.8906 C841.5625,555.1719 843.5625,553.0938 846.1875,553.0938 C847.0625,553.0938 847.6563,553.2344 848.5938,553.6719 Z "/><text fill="#000000" font-family="sans-serif" font-size="12" lengthAdjust="spacingAndGlyphs" textLength="63" x="866.75" y="562.1543">Finanzamt</text><line style="stroke: #A80036; stroke-width: 1.5;" x1="710.5" x2="1053.5" y1="574" y2="574"/><text fill="#000000" font-family="sans-serif" font-size="11" lengthAdjust="spacingAndGlyphs" text-decoration="underline" textLength="208" x="715.5" y="588.2104">-steuerpflichtige: ArrayList&lt;Person&gt;</text><line style="stroke: #000000; stroke-width: 1.0;" x1="715.5" x2="923.5" y1="590.2104" y2="590.2104"/><text fill="#000000" font-family="sans-serif" font-size="11" lengthAdjust="spacingAndGlyphs" text-decoration="underline" textLength="120" x="715.5" y="601.0151">-: ArrayList&lt;Person&gt;</text><line style="stroke: #000000; stroke-width: 1.0;" x1="715.5" x2="835.5" y1="603.0151" y2="603.0151"/><line style="stroke: #A80036; stroke-width: 1.5;" x1="710.5" x2="1053.5" y1="607.6094" y2="607.6094"/><text fill="#000000" font-family="sans-serif" font-size="11" lengthAdjust="spacingAndGlyphs" textLength="266" x="715.5" y="621.8198">+berechneEinkommenssteuer(Person): double</text><text fill="#000000" font-family="sans-serif" font-size="11" lengthAdjust="spacingAndGlyphs" textLength="248" x="715.5" y="634.6245">+berechneGewerbesteuer(Person) : double</text><text fill="#000000" font-family="sans-serif" font-size="11" lengthAdjust="spacingAndGlyphs" textLength="284" x="715.5" y="647.4292">+berechneKoerperschaftssteuer(Person) : double</text><text fill="#000000" font-family="sans-serif" font-size="11" lengthAdjust="spacingAndGlyphs" textLength="333" x="715.5" y="660.2339">+berechneGesamtsteuerFuerPersonen(Person...) : double</text><text fill="#000000" font-family="sans-serif" font-size="11" lengthAdjust="spacingAndGlyphs" textLength="229" x="715.5" y="673.0386">+berechneSteuerAllerBuerger() : double</text><text fill="#000000" font-family="sans-serif" font-size="11" lengthAdjust="spacingAndGlyphs" textLength="236" x="715.5" y="685.8433">+berechneSteuerAllerSchurken() : double</text><text fill="#000000" font-family="sans-serif" font-size="11" lengthAdjust="spacingAndGlyphs" textLength="270" x="715.5" y="698.6479">+berechneSteuerAllerOrganisationen() : double</text><text fill="#000000" font-family="sans-serif" font-size="11" lengthAdjust="spacingAndGlyphs" textLength="202" x="715.5" y="711.4526">+berechneGesamtsteuer() : double</text><text fill="#000000" font-family="sans-serif" font-size="11" lengthAdjust="spacingAndGlyphs" text-decoration="underline" textLength="199" x="715.5" y="724.2573">+setSteuerpflichtige(Person) : void</text><line style="stroke: #000000; stroke-width: 1.0;" x1="715.5" x2="914.5" y1="726.2573" y2="726.2573"/><text fill="#000000" font-family="sans-serif" font-size="11" lengthAdjust="spacingAndGlyphs" text-decoration="underline" textLength="271" x="715.5" y="737.062">+getAlleSteuerpflichtigen() : ArrayList&lt;Person&gt;</text><line style="stroke: #000000; stroke-width: 1.0;" x1="715.5" x2="986.5" y1="739.062" y2="739.062"/><text fill="#000000" font-family="sans-serif" font-size="11" lengthAdjust="spacingAndGlyphs" text-decoration="underline" textLength="144" x="715.5" y="749.8667">+getInstanz() : Finanzamt</text><line style="stroke: #000000; stroke-width: 1.0;" x1="715.5" x2="859.5" y1="751.8667" y2="751.8667"/><!--class Kapitalgesellschaft--><rect fill="#FEFECE" filter="url(#f1rlb1j2gkfsre)" height="99.2188" id="Kapitalgesellschaft" style="stroke: #A80036; stroke-width: 1.5;" width="223" x="149.5" y="1039"/><ellipse cx="197.75" cy="1055" fill="#ADD1B2" rx="11" ry="11" style="stroke: #A80036; stroke-width: 1.0;"/><path d="M200.0938,1050.6719 L200.2656,1050.75 C200.4844,1050.4375 200.6875,1050.3438 200.9844,1050.3438 C201.2813,1050.3438 201.5625,1050.4844 201.7188,1050.75 C201.8125,1050.9063 201.8281,1051.0313 201.8281,1051.4688 L201.8281,1052.8906 C201.8281,1053.3125 201.7969,1053.5 201.6875,1053.6563 C201.5156,1053.875 201.25,1054.0156 200.9844,1054.0156 C200.7656,1054.0156 200.5313,1053.9063 200.3906,1053.7656 C200.25,1053.6406 200.2188,1053.5156 200.1563,1053.1094 C200.0625,1052.7031 199.8906,1052.4844 199.4063,1052.2031 C198.9375,1051.9531 198.3281,1051.7969 197.75,1051.7969 C196.0156,1051.7969 194.7656,1053.1094 194.7656,1054.8906 L194.7656,1055.9844 C194.7656,1057.6875 196.0625,1058.7813 198.1094,1058.7813 C198.875,1058.7813 199.5625,1058.6563 199.9844,1058.3906 C200.1719,1058.2969 200.1719,1058.2969 200.625,1057.8125 C200.8125,1057.625 201.0156,1057.5469 201.2344,1057.5469 C201.7031,1057.5469 202.0938,1057.9375 202.0938,1058.3906 C202.0938,1058.7813 201.7656,1059.2344 201.1875,1059.6406 C200.4375,1060.1875 199.2813,1060.4844 198.0625,1060.4844 C195.1719,1060.4844 193.0625,1058.5938 193.0625,1056.0156 L193.0625,1054.8906 C193.0625,1052.1719 195.0625,1050.0938 197.6875,1050.0938 C198.5625,1050.0938 199.1563,1050.2344 200.0938,1050.6719 Z "/><text fill="#000000" font-family="sans-serif" font-size="12" lengthAdjust="spacingAndGlyphs" textLength="118" x="218.25" y="1059.1543">Kapitalgesellschaft</text><line style="stroke: #A80036; stroke-width: 1.5;" x1="150.5" x2="371.5" y1="1071" y2="1071"/><text fill="#000000" font-family="sans-serif" font-size="11" lengthAdjust="spacingAndGlyphs" textLength="151" x="155.5" y="1085.2104">-gesellschafter : Buerger[]</text><line style="stroke: #A80036; stroke-width: 1.5;" x1="150.5" x2="371.5" y1="1091.8047" y2="1091.8047"/><text fill="#000000" font-family="sans-serif" font-size="11" lengthAdjust="spacingAndGlyphs" textLength="158" x="155.5" y="1106.0151">+meldeAnFinanzamt() : void</text><text fill="#000000" font-family="sans-serif" font-size="11" lengthAdjust="spacingAndGlyphs" textLength="211" x="155.5" y="1118.8198">+setGesellschafter(Buerger...) : void</text><text fill="#000000" font-family="sans-serif" font-size="11" lengthAdjust="spacingAndGlyphs" textLength="184" x="155.5" y="1131.6245">+getGesellschafter() : Buerger[]</text><!--class Organisation--><rect fill="#FEFECE" filter="url(#f1rlb1j2gkfsre)" height="60.8047" id="Organisation" style="stroke: #A80036; stroke-width: 1.5;" width="126" x="278" y="618.5"/><ellipse cx="300.2" cy="634.5" fill="#A9DCDF" rx="11" ry="11" style="stroke: #A80036; stroke-width: 1.0;"/><path d="M301.7781,636.3125 L297.7313,636.3125 L297.3406,637.2969 L297.7313,637.2969 C298.1844,637.2969 298.325,637.3281 298.4969,637.4531 C298.7156,637.625 298.8406,637.875 298.8406,638.1563 C298.8406,638.4375 298.7,638.7344 298.4344,638.875 C298.3094,638.9688 298.0906,639 297.7313,639 L295.4656,639 C294.7156,639 294.3406,638.7188 294.3406,638.1563 C294.3406,637.8594 294.4969,637.5781 294.7469,637.4219 C294.9031,637.3125 295.0594,637.2969 295.4813,637.2969 L298.1219,630.7813 L297.0438,630.7813 C296.6063,630.7813 296.4344,630.75 296.2625,630.6406 C296.0438,630.4688 295.9031,630.2188 295.9031,629.9375 C295.9031,629.6563 296.0594,629.375 296.3094,629.2031 C296.4656,629.1094 296.5906,629.0938 297.0438,629.0938 L300.7156,629.0938 L304.1063,637.2969 C304.575,637.2969 304.7313,637.3281 304.9031,637.4688 C305.1219,637.625 305.2625,637.875 305.2625,638.1563 C305.2625,638.4375 305.1063,638.7344 304.8563,638.875 C304.7156,638.9688 304.4969,639 304.1375,639 L301.7781,639 C301.3563,639 301.1531,638.9531 301.0125,638.8281 C300.7938,638.6719 300.6531,638.4219 300.6531,638.1563 C300.6531,637.8594 300.8094,637.5781 301.0594,637.4219 C301.2156,637.3125 301.325,637.2969 301.7781,637.2969 L302.1688,637.2969 Z M301.075,634.6094 L299.7469,631.3438 L298.4031,634.6094 Z "/><text fill="#000000" font-family="sans-serif" font-size="12" font-style="italic" lengthAdjust="spacingAndGlyphs" textLength="78" x="315.8" y="638.6543">Organisation</text><line style="stroke: #A80036; stroke-width: 1.5;" x1="279" x2="403" y1="650.5" y2="650.5"/><line style="stroke: #A80036; stroke-width: 1.5;" x1="279" x2="403" y1="658.5" y2="658.5"/><text fill="#000000" font-family="sans-serif" font-size="11" lengthAdjust="spacingAndGlyphs" textLength="114" x="284" y="672.7104">+getName() : String</text><!--class Personengesellschaft--><rect fill="#FEFECE" filter="url(#f1rlb1j2gkfsre)" height="99.2188" id="Personengesellschaft" style="stroke: #A80036; stroke-width: 1.5;" width="223" x="407.5" y="1039"/><ellipse cx="447.25" cy="1055" fill="#ADD1B2" rx="11" ry="11" style="stroke: #A80036; stroke-width: 1.0;"/><path d="M449.5938,1050.6719 L449.7656,1050.75 C449.9844,1050.4375 450.1875,1050.3438 450.4844,1050.3438 C450.7813,1050.3438 451.0625,1050.4844 451.2188,1050.75 C451.3125,1050.9063 451.3281,1051.0313 451.3281,1051.4688 L451.3281,1052.8906 C451.3281,1053.3125 451.2969,1053.5 451.1875,1053.6563 C451.0156,1053.875 450.75,1054.0156 450.4844,1054.0156 C450.2656,1054.0156 450.0313,1053.9063 449.8906,1053.7656 C449.75,1053.6406 449.7188,1053.5156 449.6563,1053.1094 C449.5625,1052.7031 449.3906,1052.4844 448.9063,1052.2031 C448.4375,1051.9531 447.8281,1051.7969 447.25,1051.7969 C445.5156,1051.7969 444.2656,1053.1094 444.2656,1054.8906 L444.2656,1055.9844 C444.2656,1057.6875 445.5625,1058.7813 447.6094,1058.7813 C448.375,1058.7813 449.0625,1058.6563 449.4844,1058.3906 C449.6719,1058.2969 449.6719,1058.2969 450.125,1057.8125 C450.3125,1057.625 450.5156,1057.5469 450.7344,1057.5469 C451.2031,1057.5469 451.5938,1057.9375 451.5938,1058.3906 C451.5938,1058.7813 451.2656,1059.2344 450.6875,1059.6406 C449.9375,1060.1875 448.7813,1060.4844 447.5625,1060.4844 C444.6719,1060.4844 442.5625,1058.5938 442.5625,1056.0156 L442.5625,1054.8906 C442.5625,1052.1719 444.5625,1050.0938 447.1875,1050.0938 C448.0625,1050.0938 448.6563,1050.2344 449.5938,1050.6719 Z "/><text fill="#000000" font-family="sans-serif" font-size="12" lengthAdjust="spacingAndGlyphs" textLength="136" x="466.75" y="1059.1543">Personengesellschaft</text><line style="stroke: #A80036; stroke-width: 1.5;" x1="408.5" x2="629.5" y1="1071" y2="1071"/><text fill="#000000" font-family="sans-serif" font-size="11" lengthAdjust="spacingAndGlyphs" textLength="109" x="413.5" y="1085.2104">-inhaber: Buerger[]</text><line style="stroke: #A80036; stroke-width: 1.5;" x1="408.5" x2="629.5" y1="1091.8047" y2="1091.8047"/><text fill="#000000" font-family="sans-serif" font-size="11" lengthAdjust="spacingAndGlyphs" textLength="158" x="413.5" y="1106.0151">+meldeAnFinanzamt() : void</text><text fill="#000000" font-family="sans-serif" font-size="11" lengthAdjust="spacingAndGlyphs" textLength="211" x="413.5" y="1118.8198">+setGesellschafter(Buerger...) : void</text><text fill="#000000" font-family="sans-serif" font-size="11" lengthAdjust="spacingAndGlyphs" textLength="184" x="413.5" y="1131.6245">+getGesellschafter() : Buerger[]</text><!--class Unternehmen--><rect fill="#FEFECE" filter="url(#f1rlb1j2gkfsre)" height="48" id="Unternehmen" style="stroke: #A80036; stroke-width: 1.5;" width="118" x="282" y="873.5"/><ellipse cx="297" cy="889.5" fill="#A9DCDF" rx="11" ry="11" style="stroke: #A80036; stroke-width: 1.0;"/><path d="M298.5781,891.3125 L294.5313,891.3125 L294.1406,892.2969 L294.5313,892.2969 C294.9844,892.2969 295.125,892.3281 295.2969,892.4531 C295.5156,892.625 295.6406,892.875 295.6406,893.1563 C295.6406,893.4375 295.5,893.7344 295.2344,893.875 C295.1094,893.9688 294.8906,894 294.5313,894 L292.2656,894 C291.5156,894 291.1406,893.7188 291.1406,893.1563 C291.1406,892.8594 291.2969,892.5781 291.5469,892.4219 C291.7031,892.3125 291.8594,892.2969 292.2813,892.2969 L294.9219,885.7813 L293.8438,885.7813 C293.4063,885.7813 293.2344,885.75 293.0625,885.6406 C292.8438,885.4688 292.7031,885.2188 292.7031,884.9375 C292.7031,884.6563 292.8594,884.375 293.1094,884.2031 C293.2656,884.1094 293.3906,884.0938 293.8438,884.0938 L297.5156,884.0938 L300.9063,892.2969 C301.375,892.2969 301.5313,892.3281 301.7031,892.4688 C301.9219,892.625 302.0625,892.875 302.0625,893.1563 C302.0625,893.4375 301.9063,893.7344 301.6563,893.875 C301.5156,893.9688 301.2969,894 300.9375,894 L298.5781,894 C298.1563,894 297.9531,893.9531 297.8125,893.8281 C297.5938,893.6719 297.4531,893.4219 297.4531,893.1563 C297.4531,892.8594 297.6094,892.5781 297.8594,892.4219 C298.0156,892.3125 298.125,892.2969 298.5781,892.2969 L298.9688,892.2969 Z M297.875,889.6094 L296.5469,886.3438 L295.2031,889.6094 Z "/><text fill="#000000" font-family="sans-serif" font-size="12" font-style="italic" lengthAdjust="spacingAndGlyphs" textLength="86" x="311" y="893.6543">Unternehmen</text><line style="stroke: #A80036; stroke-width: 1.5;" x1="283" x2="399" y1="905.5" y2="905.5"/><line style="stroke: #A80036; stroke-width: 1.5;" x1="283" x2="399" y1="913.5" y2="913.5"/><!--class Syndikat--><rect fill="#FEFECE" filter="url(#f1rlb1j2gkfsre)" height="99.2188" id="Syndikat" style="stroke: #A80036; stroke-width: 1.5;" width="195" x="435.5" y="848"/><ellipse cx="502.25" cy="864" fill="#ADD1B2" rx="11" ry="11" style="stroke: #A80036; stroke-width: 1.0;"/><path d="M504.5938,859.6719 L504.7656,859.75 C504.9844,859.4375 505.1875,859.3438 505.4844,859.3438 C505.7813,859.3438 506.0625,859.4844 506.2188,859.75 C506.3125,859.9063 506.3281,860.0313 506.3281,860.4688 L506.3281,861.8906 C506.3281,862.3125 506.2969,862.5 506.1875,862.6563 C506.0156,862.875 505.75,863.0156 505.4844,863.0156 C505.2656,863.0156 505.0313,862.9063 504.8906,862.7656 C504.75,862.6406 504.7188,862.5156 504.6563,862.1094 C504.5625,861.7031 504.3906,861.4844 503.9063,861.2031 C503.4375,860.9531 502.8281,860.7969 502.25,860.7969 C500.5156,860.7969 499.2656,862.1094 499.2656,863.8906 L499.2656,864.9844 C499.2656,866.6875 500.5625,867.7813 502.6094,867.7813 C503.375,867.7813 504.0625,867.6563 504.4844,867.3906 C504.6719,867.2969 504.6719,867.2969 505.125,866.8125 C505.3125,866.625 505.5156,866.5469 505.7344,866.5469 C506.2031,866.5469 506.5938,866.9375 506.5938,867.3906 C506.5938,867.7813 506.2656,868.2344 505.6875,868.6406 C504.9375,869.1875 503.7813,869.4844 502.5625,869.4844 C499.6719,869.4844 497.5625,867.5938 497.5625,865.0156 L497.5625,863.8906 C497.5625,861.1719 499.5625,859.0938 502.1875,859.0938 C503.0625,859.0938 503.6563,859.2344 504.5938,859.6719 Z "/><text fill="#000000" font-family="sans-serif" font-size="12" lengthAdjust="spacingAndGlyphs" textLength="53" x="522.75" y="868.1543">Syndikat</text><line style="stroke: #A80036; stroke-width: 1.5;" x1="436.5" x2="629.5" y1="880" y2="880"/><text fill="#000000" font-family="sans-serif" font-size="11" lengthAdjust="spacingAndGlyphs" textLength="127" x="441.5" y="894.2104">-mitglieder : Schurke[]</text><line style="stroke: #A80036; stroke-width: 1.5;" x1="436.5" x2="629.5" y1="900.8047" y2="900.8047"/><text fill="#000000" font-family="sans-serif" font-size="11" lengthAdjust="spacingAndGlyphs" textLength="183" x="441.5" y="915.0151">+setMitglieder(Schurke...) : void</text><text fill="#000000" font-family="sans-serif" font-size="11" lengthAdjust="spacingAndGlyphs" textLength="156" x="441.5" y="927.8198">+getMitglieder() : Schurke[]</text><text fill="#000000" font-family="sans-serif" font-size="11" lengthAdjust="spacingAndGlyphs" textLength="158" x="441.5" y="940.6245">+meldeAnFinanzamt() : void</text><!--class Person--><rect fill="#FEFECE" filter="url(#f1rlb1j2gkfsre)" height="240.0703" id="Person" style="stroke: #A80036; stroke-width: 1.5;" width="270" x="914" y="93"/><ellipse cx="1022.75" cy="109" fill="#ADD1B2" rx="11" ry="11" style="stroke: #A80036; stroke-width: 1.0;"/><path d="M1025.0938,104.6719 L1025.2656,104.75 C1025.4844,104.4375 1025.6875,104.3438 1025.9844,104.3438 C1026.2813,104.3438 1026.5625,104.4844 1026.7188,104.75 C1026.8125,104.9063 1026.8281,105.0313 1026.8281,105.4688 L1026.8281,106.8906 C1026.8281,107.3125 1026.7969,107.5 1026.6875,107.6563 C1026.5156,107.875 1026.25,108.0156 1025.9844,108.0156 C1025.7656,108.0156 1025.5313,107.9063 1025.3906,107.7656 C1025.25,107.6406 1025.2188,107.5156 1025.1563,107.1094 C1025.0625,106.7031 1024.8906,106.4844 1024.4063,106.2031 C1023.9375,105.9531 1023.3281,105.7969 1022.75,105.7969 C1021.0156,105.7969 1019.7656,107.1094 1019.7656,108.8906 L1019.7656,109.9844 C1019.7656,111.6875 1021.0625,112.7813 1023.1094,112.7813 C1023.875,112.7813 1024.5625,112.6563 1024.9844,112.3906 C1025.1719,112.2969 1025.1719,112.2969 1025.625,111.8125 C1025.8125,111.625 1026.0156,111.5469 1026.2344,111.5469 C1026.7031,111.5469 1027.0938,111.9375 1027.0938,112.3906 C1027.0938,112.7813 1026.7656,113.2344 1026.1875,113.6406 C1025.4375,114.1875 1024.2813,114.4844 1023.0625,114.4844 C1020.1719,114.4844 1018.0625,112.5938 1018.0625,110.0156 L1018.0625,108.8906 C1018.0625,106.1719 1020.0625,104.0938 1022.6875,104.0938 C1023.5625,104.0938 1024.1563,104.2344 1025.0938,104.6719 Z "/><text fill="#000000" font-family="sans-serif" font-size="12" lengthAdjust="spacingAndGlyphs" textLength="44" x="1043.25" y="113.1543">Person</text><line style="stroke: #A80036; stroke-width: 1.5;" x1="915" x2="1183" y1="125" y2="125"/><text fill="#000000" font-family="sans-serif" font-size="11" lengthAdjust="spacingAndGlyphs" textLength="208" x="920" y="139.2104">-einkommensteuerpflichtig : boolean</text><text fill="#000000" font-family="sans-serif" font-size="11" lengthAdjust="spacingAndGlyphs" textLength="240" x="920" y="152.0151">-boolean gewerbesteuerpflichtig : boolean</text><text fill="#000000" font-family="sans-serif" font-size="11" lengthAdjust="spacingAndGlyphs" textLength="228" x="920" y="164.8198">-koerperschaftssteuerpflichtig : boolean</text><text fill="#000000" font-family="sans-serif" font-size="11" lengthAdjust="spacingAndGlyphs" textLength="96" x="920" y="177.6245">-einkommen : int</text><text fill="#000000" font-family="sans-serif" font-size="11" lengthAdjust="spacingAndGlyphs" textLength="82" x="920" y="190.4292">-name : String</text><line style="stroke: #A80036; stroke-width: 1.5;" x1="915" x2="1183" y1="197.0234" y2="197.0234"/><text fill="#000000" font-family="sans-serif" font-size="11" lengthAdjust="spacingAndGlyphs" textLength="123" x="920" y="211.2339">+getEinkommen(): int</text><text fill="#000000" font-family="sans-serif" font-size="11" lengthAdjust="spacingAndGlyphs" textLength="150" x="920" y="224.0386">+setEinkommen(int) : void</text><text fill="#000000" font-family="sans-serif" font-size="11" lengthAdjust="spacingAndGlyphs" textLength="150" x="920" y="236.8433">+getPersonName(): String</text><text fill="#000000" font-family="sans-serif" font-size="11" lengthAdjust="spacingAndGlyphs" textLength="177" x="920" y="249.6479">+setPersonName(String) : void</text><text fill="#000000" font-family="sans-serif" font-size="11" lengthAdjust="spacingAndGlyphs" textLength="238" x="920" y="262.4526">+isEinkommenssteuerpflichtig() : boolean</text><text fill="#000000" font-family="sans-serif" font-size="11" lengthAdjust="spacingAndGlyphs" textLength="216" x="920" y="275.2573">+isGewerbesteuerpflichtig() : boolean</text><text fill="#000000" font-family="sans-serif" font-size="11" lengthAdjust="spacingAndGlyphs" textLength="245" x="920" y="288.062">+isKoerperschaftsteuerpflichtig() : boolean</text><text fill="#000000" font-family="sans-serif" font-size="11" lengthAdjust="spacingAndGlyphs" textLength="114" x="920" y="300.8667">+getName() : String</text><text fill="#000000" font-family="sans-serif" font-size="11" lengthAdjust="spacingAndGlyphs" textLength="239" x="920" y="313.6714">+getEinkommensteuerpflichtig() : boolean</text><text fill="#000000" font-family="sans-serif" font-size="11" lengthAdjust="spacingAndGlyphs" textLength="258" x="920" y="326.4761">+setEinkommensteuerpflichtig(boolean): void</text><!--class Kaempfer--><rect fill="#FEFECE" filter="url(#f1rlb1j2gkfsre)" height="60.8047" id="Kaempfer" style="stroke: #A80036; stroke-width: 1.5;" width="152" x="1498" y="618.5"/><ellipse cx="1540" cy="634.5" fill="#B4A7E5" rx="11" ry="11" style="stroke: #A80036; stroke-width: 1.0;"/><path d="M1540.9531,631.2813 L1540.9531,637.7969 L1542.6719,637.7969 C1543.125,637.7969 1543.2656,637.8281 1543.4375,637.9531 C1543.6719,638.125 1543.7813,638.375 1543.7813,638.6563 C1543.7813,639.2188 1543.4219,639.5 1542.6719,639.5 L1537.5313,639.5 C1537.125,639.5 1536.9219,639.4531 1536.7656,639.3281 C1536.5469,639.1719 1536.4063,638.9063 1536.4063,638.6563 C1536.4063,638.3594 1536.5625,638.0781 1536.8125,637.9219 C1536.9688,637.8125 1537.0938,637.7969 1537.5313,637.7969 L1539.25,637.7969 L1539.25,631.2813 L1537.5313,631.2813 C1537.1094,631.2813 1536.9219,631.25 1536.7656,631.1406 C1536.5469,630.9688 1536.4063,630.7188 1536.4063,630.4375 C1536.4063,630.1563 1536.5625,629.8594 1536.8125,629.7031 C1536.9688,629.6094 1537.0938,629.5938 1537.5313,629.5938 L1542.6719,629.5938 C1543.125,629.5938 1543.2656,629.625 1543.4375,629.7344 C1543.6719,629.9063 1543.7813,630.1719 1543.7813,630.4375 C1543.7813,630.7344 1543.6406,631.0156 1543.375,631.1719 C1543.25,631.25 1543.0625,631.2813 1542.6719,631.2813 Z "/><text fill="#000000" font-family="sans-serif" font-size="12" font-style="italic" lengthAdjust="spacingAndGlyphs" textLength="60" x="1560" y="638.6543">Kaempfer</text><line style="stroke: #A80036; stroke-width: 1.5;" x1="1499" x2="1649" y1="650.5" y2="650.5"/><line style="stroke: #A80036; stroke-width: 1.5;" x1="1499" x2="1649" y1="658.5" y2="658.5"/><text fill="#000000" font-family="sans-serif" font-size="11" font-style="italic" lengthAdjust="spacingAndGlyphs" textLength="140" x="1504" y="672.7104">+kaempfe(Mutant) : void</text><!--class Mensch--><rect fill="#FEFECE" filter="url(#f1rlb1j2gkfsre)" height="124.8281" id="Mensch" style="stroke: #A80036; stroke-width: 1.5;" width="133" x="1940.5" y="586.5"/><ellipse cx="1979.8" cy="602.5" fill="#A9DCDF" rx="11" ry="11" style="stroke: #A80036; stroke-width: 1.0;"/><path d="M1981.3781,604.3125 L1977.3313,604.3125 L1976.9406,605.2969 L1977.3313,605.2969 C1977.7844,605.2969 1977.925,605.3281 1978.0969,605.4531 C1978.3156,605.625 1978.4406,605.875 1978.4406,606.1563 C1978.4406,606.4375 1978.3,606.7344 1978.0344,606.875 C1977.9094,606.9688 1977.6906,607 1977.3313,607 L1975.0656,607 C1974.3156,607 1973.9406,606.7188 1973.9406,606.1563 C1973.9406,605.8594 1974.0969,605.5781 1974.3469,605.4219 C1974.5031,605.3125 1974.6594,605.2969 1975.0813,605.2969 L1977.7219,598.7813 L1976.6438,598.7813 C1976.2063,598.7813 1976.0344,598.75 1975.8625,598.6406 C1975.6438,598.4688 1975.5031,598.2188 1975.5031,597.9375 C1975.5031,597.6563 1975.6594,597.375 1975.9094,597.2031 C1976.0656,597.1094 1976.1906,597.0938 1976.6438,597.0938 L1980.3156,597.0938 L1983.7063,605.2969 C1984.175,605.2969 1984.3313,605.3281 1984.5031,605.4688 C1984.7219,605.625 1984.8625,605.875 1984.8625,606.1563 C1984.8625,606.4375 1984.7063,606.7344 1984.4563,606.875 C1984.3156,606.9688 1984.0969,607 1983.7375,607 L1981.3781,607 C1980.9563,607 1980.7531,606.9531 1980.6125,606.8281 C1980.3938,606.6719 1980.2531,606.4219 1980.2531,606.1563 C1980.2531,605.8594 1980.4094,605.5781 1980.6594,605.4219 C1980.8156,605.3125 1980.925,605.2969 1981.3781,605.2969 L1981.7688,605.2969 Z M1980.675,602.6094 L1979.3469,599.3438 L1978.0031,602.6094 Z "/><text fill="#000000" font-family="sans-serif" font-size="12" font-style="italic" lengthAdjust="spacingAndGlyphs" textLength="47" x="1999.2" y="606.6543">Mensch</text><line style="stroke: #A80036; stroke-width: 1.5;" x1="1941.5" x2="2072.5" y1="618.5" y2="618.5"/><text fill="#000000" font-family="sans-serif" font-size="11" lengthAdjust="spacingAndGlyphs" textLength="67" x="1946.5" y="632.7104">-job : String</text><text fill="#000000" font-family="sans-serif" font-size="11" lengthAdjust="spacingAndGlyphs" textLength="56" x="1946.5" y="645.5151">-alter : int</text><line style="stroke: #A80036; stroke-width: 1.5;" x1="1941.5" x2="2072.5" y1="652.1094" y2="652.1094"/><text fill="#000000" font-family="sans-serif" font-size="11" lengthAdjust="spacingAndGlyphs" textLength="94" x="1946.5" y="666.3198">+getJob(): String</text><text fill="#000000" font-family="sans-serif" font-size="11" lengthAdjust="spacingAndGlyphs" textLength="121" x="1946.5" y="679.1245">+setJob(String) : void</text><text fill="#000000" font-family="sans-serif" font-size="11" lengthAdjust="spacingAndGlyphs" textLength="83" x="1946.5" y="691.9292">+getAlter(): int</text><text fill="#000000" font-family="sans-serif" font-size="11" lengthAdjust="spacingAndGlyphs" textLength="110" x="1946.5" y="704.7339">+setAlter(int) : void</text><!--class Buerger--><rect fill="#FEFECE" filter="url(#f1rlb1j2gkfsre)" height="60.8047" id="Buerger" style="stroke: #A80036; stroke-width: 1.5;" width="170" x="1922" y="867"/><ellipse cx="1977.75" cy="883" fill="#ADD1B2" rx="11" ry="11" style="stroke: #A80036; stroke-width: 1.0;"/><path d="M1980.0938,878.6719 L1980.2656,878.75 C1980.4844,878.4375 1980.6875,878.3438 1980.9844,878.3438 C1981.2813,878.3438 1981.5625,878.4844 1981.7188,878.75 C1981.8125,878.9063 1981.8281,879.0313 1981.8281,879.4688 L1981.8281,880.8906 C1981.8281,881.3125 1981.7969,881.5 1981.6875,881.6563 C1981.5156,881.875 1981.25,882.0156 1980.9844,882.0156 C1980.7656,882.0156 1980.5313,881.9063 1980.3906,881.7656 C1980.25,881.6406 1980.2188,881.5156 1980.1563,881.1094 C1980.0625,880.7031 1979.8906,880.4844 1979.4063,880.2031 C1978.9375,879.9531 1978.3281,879.7969 1977.75,879.7969 C1976.0156,879.7969 1974.7656,881.1094 1974.7656,882.8906 L1974.7656,883.9844 C1974.7656,885.6875 1976.0625,886.7813 1978.1094,886.7813 C1978.875,886.7813 1979.5625,886.6563 1979.9844,886.3906 C1980.1719,886.2969 1980.1719,886.2969 1980.625,885.8125 C1980.8125,885.625 1981.0156,885.5469 1981.2344,885.5469 C1981.7031,885.5469 1982.0938,885.9375 1982.0938,886.3906 C1982.0938,886.7813 1981.7656,887.2344 1981.1875,887.6406 C1980.4375,888.1875 1979.2813,888.4844 1978.0625,888.4844 C1975.1719,888.4844 1973.0625,886.5938 1973.0625,884.0156 L1973.0625,882.8906 C1973.0625,880.1719 1975.0625,878.0938 1977.6875,878.0938 C1978.5625,878.0938 1979.1563,878.2344 1980.0938,878.6719 Z "/><text fill="#000000" font-family="sans-serif" font-size="12" lengthAdjust="spacingAndGlyphs" textLength="50" x="1998.25" y="887.1543">Buerger</text><line style="stroke: #A80036; stroke-width: 1.5;" x1="1923" x2="2091" y1="899" y2="899"/><line style="stroke: #A80036; stroke-width: 1.5;" x1="1923" x2="2091" y1="907" y2="907"/><text fill="#000000" font-family="sans-serif" font-size="11" lengthAdjust="spacingAndGlyphs" textLength="158" x="1928" y="921.2104">+meldeAnFinanzamt() : void</text><!--class Richter--><rect fill="#FEFECE" filter="url(#f1rlb1j2gkfsre)" height="99.2188" id="Richter" style="stroke: #A80036; stroke-width: 1.5;" width="171" x="2127.5" y="848"/><ellipse cx="2186.75" cy="864" fill="#ADD1B2" rx="11" ry="11" style="stroke: #A80036; stroke-width: 1.0;"/><path d="M2189.0938,859.6719 L2189.2656,859.75 C2189.4844,859.4375 2189.6875,859.3438 2189.9844,859.3438 C2190.2813,859.3438 2190.5625,859.4844 2190.7188,859.75 C2190.8125,859.9063 2190.8281,860.0313 2190.8281,860.4688 L2190.8281,861.8906 C2190.8281,862.3125 2190.7969,862.5 2190.6875,862.6563 C2190.5156,862.875 2190.25,863.0156 2189.9844,863.0156 C2189.7656,863.0156 2189.5313,862.9063 2189.3906,862.7656 C2189.25,862.6406 2189.2188,862.5156 2189.1563,862.1094 C2189.0625,861.7031 2188.8906,861.4844 2188.4063,861.2031 C2187.9375,860.9531 2187.3281,860.7969 2186.75,860.7969 C2185.0156,860.7969 2183.7656,862.1094 2183.7656,863.8906 L2183.7656,864.9844 C2183.7656,866.6875 2185.0625,867.7813 2187.1094,867.7813 C2187.875,867.7813 2188.5625,867.6563 2188.9844,867.3906 C2189.1719,867.2969 2189.1719,867.2969 2189.625,866.8125 C2189.8125,866.625 2190.0156,866.5469 2190.2344,866.5469 C2190.7031,866.5469 2191.0938,866.9375 2191.0938,867.3906 C2191.0938,867.7813 2190.7656,868.2344 2190.1875,868.6406 C2189.4375,869.1875 2188.2813,869.4844 2187.0625,869.4844 C2184.1719,869.4844 2182.0625,867.5938 2182.0625,865.0156 L2182.0625,863.8906 C2182.0625,861.1719 2184.0625,859.0938 2186.6875,859.0938 C2187.5625,859.0938 2188.1563,859.2344 2189.0938,859.6719 Z "/><text fill="#000000" font-family="sans-serif" font-size="12" lengthAdjust="spacingAndGlyphs" textLength="44" x="2207.25" y="868.1543">Richter</text><line style="stroke: #A80036; stroke-width: 1.5;" x1="2128.5" x2="2297.5" y1="880" y2="880"/><text fill="#000000" font-family="sans-serif" font-size="11" lengthAdjust="spacingAndGlyphs" textLength="102" x="2133.5" y="894.2104">-korrupt : boolean</text><line style="stroke: #A80036; stroke-width: 1.5;" x1="2128.5" x2="2297.5" y1="900.8047" y2="900.8047"/><text fill="#000000" font-family="sans-serif" font-size="11" lengthAdjust="spacingAndGlyphs" textLength="159" x="2133.5" y="915.0151">+verurteilen(Schurke) : void</text><text fill="#000000" font-family="sans-serif" font-size="11" lengthAdjust="spacingAndGlyphs" textLength="122" x="2133.5" y="927.8198">+isKorrupt(): boolean</text><text fill="#000000" font-family="sans-serif" font-size="11" lengthAdjust="spacingAndGlyphs" textLength="157" x="2133.5" y="940.6245">+setKorrupt(boolean) : void</text><!--class Einwohner--><rect fill="#FEFECE" filter="url(#f1rlb1j2gkfsre)" height="73.6094" id="Einwohner" style="stroke: #A80036; stroke-width: 1.5;" width="126" x="1723" y="408"/><ellipse cx="1750.6" cy="424" fill="#A9DCDF" rx="11" ry="11" style="stroke: #A80036; stroke-width: 1.0;"/><path d="M1752.1781,425.8125 L1748.1313,425.8125 L1747.7406,426.7969 L1748.1313,426.7969 C1748.5844,426.7969 1748.725,426.8281 1748.8969,426.9531 C1749.1156,427.125 1749.2406,427.375 1749.2406,427.6563 C1749.2406,427.9375 1749.1,428.2344 1748.8344,428.375 C1748.7094,428.4688 1748.4906,428.5 1748.1313,428.5 L1745.8656,428.5 C1745.1156,428.5 1744.7406,428.2188 1744.7406,427.6563 C1744.7406,427.3594 1744.8969,427.0781 1745.1469,426.9219 C1745.3031,426.8125 1745.4594,426.7969 1745.8813,426.7969 L1748.5219,420.2813 L1747.4438,420.2813 C1747.0063,420.2813 1746.8344,420.25 1746.6625,420.1406 C1746.4438,419.9688 1746.3031,419.7188 1746.3031,419.4375 C1746.3031,419.1563 1746.4594,418.875 1746.7094,418.7031 C1746.8656,418.6094 1746.9906,418.5938 1747.4438,418.5938 L1751.1156,418.5938 L1754.5063,426.7969 C1754.975,426.7969 1755.1313,426.8281 1755.3031,426.9688 C1755.5219,427.125 1755.6625,427.375 1755.6625,427.6563 C1755.6625,427.9375 1755.5063,428.2344 1755.2563,428.375 C1755.1156,428.4688 1754.8969,428.5 1754.5375,428.5 L1752.1781,428.5 C1751.7563,428.5 1751.5531,428.4531 1751.4125,428.3281 C1751.1938,428.1719 1751.0531,427.9219 1751.0531,427.6563 C1751.0531,427.3594 1751.2094,427.0781 1751.4594,426.9219 C1751.6156,426.8125 1751.725,426.7969 1752.1781,426.7969 L1752.5688,426.7969 Z M1751.475,424.1094 L1750.1469,420.8438 L1748.8031,424.1094 Z "/><text fill="#000000" font-family="sans-serif" font-size="12" font-style="italic" lengthAdjust="spacingAndGlyphs" textLength="66" x="1767.4" y="428.1543">Einwohner</text><line style="stroke: #A80036; stroke-width: 1.5;" x1="1724" x2="1848" y1="440" y2="440"/><text fill="#000000" font-family="sans-serif" font-size="11" lengthAdjust="spacingAndGlyphs" textLength="96" x="1729" y="454.2104">-vorname: String</text><line style="stroke: #A80036; stroke-width: 1.5;" x1="1724" x2="1848" y1="460.8047" y2="460.8047"/><text fill="#000000" font-family="sans-serif" font-size="11" lengthAdjust="spacingAndGlyphs" textLength="114" x="1729" y="475.0151">+getName() : String</text><!--class Mutant--><rect fill="#FEFECE" filter="url(#f1rlb1j2gkfsre)" height="99.2188" id="Mutant" style="stroke: #A80036; stroke-width: 1.5;" width="175" x="1698.5" y="599.5"/><ellipse cx="1759.75" cy="615.5" fill="#A9DCDF" rx="11" ry="11" style="stroke: #A80036; stroke-width: 1.0;"/><path d="M1761.3281,617.3125 L1757.2813,617.3125 L1756.8906,618.2969 L1757.2813,618.2969 C1757.7344,618.2969 1757.875,618.3281 1758.0469,618.4531 C1758.2656,618.625 1758.3906,618.875 1758.3906,619.1563 C1758.3906,619.4375 1758.25,619.7344 1757.9844,619.875 C1757.8594,619.9688 1757.6406,620 1757.2813,620 L1755.0156,620 C1754.2656,620 1753.8906,619.7188 1753.8906,619.1563 C1753.8906,618.8594 1754.0469,618.5781 1754.2969,618.4219 C1754.4531,618.3125 1754.6094,618.2969 1755.0313,618.2969 L1757.6719,611.7813 L1756.5938,611.7813 C1756.1563,611.7813 1755.9844,611.75 1755.8125,611.6406 C1755.5938,611.4688 1755.4531,611.2188 1755.4531,610.9375 C1755.4531,610.6563 1755.6094,610.375 1755.8594,610.2031 C1756.0156,610.1094 1756.1406,610.0938 1756.5938,610.0938 L1760.2656,610.0938 L1763.6563,618.2969 C1764.125,618.2969 1764.2813,618.3281 1764.4531,618.4688 C1764.6719,618.625 1764.8125,618.875 1764.8125,619.1563 C1764.8125,619.4375 1764.6563,619.7344 1764.4063,619.875 C1764.2656,619.9688 1764.0469,620 1763.6875,620 L1761.3281,620 C1760.9063,620 1760.7031,619.9531 1760.5625,619.8281 C1760.3438,619.6719 1760.2031,619.4219 1760.2031,619.1563 C1760.2031,618.8594 1760.3594,618.5781 1760.6094,618.4219 C1760.7656,618.3125 1760.875,618.2969 1761.3281,618.2969 L1761.7188,618.2969 Z M1760.625,615.6094 L1759.2969,612.3438 L1757.9531,615.6094 Z "/><text fill="#000000" font-family="sans-serif" font-size="12" font-style="italic" lengthAdjust="spacingAndGlyphs" textLength="44" x="1780.25" y="619.6543">Mutant</text><line style="stroke: #A80036; stroke-width: 1.5;" x1="1699.5" x2="1872.5" y1="631.5" y2="631.5"/><text fill="#000000" font-family="sans-serif" font-size="11" lengthAdjust="spacingAndGlyphs" textLength="101" x="1704.5" y="645.7104">#mutation: String</text><text fill="#000000" font-family="sans-serif" font-size="11" lengthAdjust="spacingAndGlyphs" textLength="132" x="1704.5" y="658.5151">#superkraefte: String[]</text><line style="stroke: #A80036; stroke-width: 1.5;" x1="1699.5" x2="1872.5" y1="665.1094" y2="665.1094"/><text fill="#000000" font-family="sans-serif" font-size="11" font-style="italic" lengthAdjust="spacingAndGlyphs" textLength="129" x="1704.5" y="679.3198">+setSuperkraft() : void</text><text fill="#000000" font-family="sans-serif" font-size="11" lengthAdjust="spacingAndGlyphs" textLength="163" x="1704.5" y="692.1245">+getSuperkraefte() : String[]</text><!--class Schurke--><rect fill="#FEFECE" filter="url(#f1rlb1j2gkfsre)" height="163.2422" id="Schurke" style="stroke: #A80036; stroke-width: 1.5;" width="193" x="1470.5" y="816"/><ellipse cx="1537.25" cy="832" fill="#ADD1B2" rx="11" ry="11" style="stroke: #A80036; stroke-width: 1.0;"/><path d="M1539.5938,827.6719 L1539.7656,827.75 C1539.9844,827.4375 1540.1875,827.3438 1540.4844,827.3438 C1540.7813,827.3438 1541.0625,827.4844 1541.2188,827.75 C1541.3125,827.9063 1541.3281,828.0313 1541.3281,828.4688 L1541.3281,829.8906 C1541.3281,830.3125 1541.2969,830.5 1541.1875,830.6563 C1541.0156,830.875 1540.75,831.0156 1540.4844,831.0156 C1540.2656,831.0156 1540.0313,830.9063 1539.8906,830.7656 C1539.75,830.6406 1539.7188,830.5156 1539.6563,830.1094 C1539.5625,829.7031 1539.3906,829.4844 1538.9063,829.2031 C1538.4375,828.9531 1537.8281,828.7969 1537.25,828.7969 C1535.5156,828.7969 1534.2656,830.1094 1534.2656,831.8906 L1534.2656,832.9844 C1534.2656,834.6875 1535.5625,835.7813 1537.6094,835.7813 C1538.375,835.7813 1539.0625,835.6563 1539.4844,835.3906 C1539.6719,835.2969 1539.6719,835.2969 1540.125,834.8125 C1540.3125,834.625 1540.5156,834.5469 1540.7344,834.5469 C1541.2031,834.5469 1541.5938,834.9375 1541.5938,835.3906 C1541.5938,835.7813 1541.2656,836.2344 1540.6875,836.6406 C1539.9375,837.1875 1538.7813,837.4844 1537.5625,837.4844 C1534.6719,837.4844 1532.5625,835.5938 1532.5625,833.0156 L1532.5625,831.8906 C1532.5625,829.1719 1534.5625,827.0938 1537.1875,827.0938 C1538.0625,827.0938 1538.6563,827.2344 1539.5938,827.6719 Z "/><text fill="#000000" font-family="sans-serif" font-size="12" lengthAdjust="spacingAndGlyphs" textLength="51" x="1557.75" y="836.1543">Schurke</text><line style="stroke: #A80036; stroke-width: 1.5;" x1="1471.5" x2="1662.5" y1="848" y2="848"/><text fill="#000000" font-family="sans-serif" font-size="11" lengthAdjust="spacingAndGlyphs" textLength="123" x="1476.5" y="862.2104">-eingesperrt: boolean</text><text fill="#000000" font-family="sans-serif" font-size="11" lengthAdjust="spacingAndGlyphs" textLength="104" x="1476.5" y="875.0151">-schuldig: boolean</text><line style="stroke: #A80036; stroke-width: 1.5;" x1="1471.5" x2="1662.5" y1="881.6094" y2="881.6094"/><text fill="#000000" font-family="sans-serif" font-size="11" lengthAdjust="spacingAndGlyphs" textLength="176" x="1476.5" y="895.8198">+setSuperkraft(String...) : void</text><text fill="#000000" font-family="sans-serif" font-size="11" lengthAdjust="spacingAndGlyphs" textLength="158" x="1476.5" y="908.6245">+meldeAnFinanzamt() : void</text><text fill="#000000" font-family="sans-serif" font-size="11" lengthAdjust="spacingAndGlyphs" textLength="139" x="1476.5" y="921.4292">+kaempfe(Mutant) : void</text><text fill="#000000" font-family="sans-serif" font-size="11" lengthAdjust="spacingAndGlyphs" textLength="110" x="1476.5" y="934.2339">+isSchuldig() : void</text><text fill="#000000" font-family="sans-serif" font-size="11" lengthAdjust="spacingAndGlyphs" textLength="128" x="1476.5" y="947.0386">+isEingesperrt() : void</text><text fill="#000000" font-family="sans-serif" font-size="11" lengthAdjust="spacingAndGlyphs" textLength="163" x="1476.5" y="959.8433">+setSchuldig(boolean) : void</text><text fill="#000000" font-family="sans-serif" font-size="11" lengthAdjust="spacingAndGlyphs" textLength="181" x="1476.5" y="972.6479">+setEingesperrt(boolean) : void</text><!--class Superheld--><rect fill="#FEFECE" filter="url(#f1rlb1j2gkfsre)" height="73.6094" id="Superheld" style="stroke: #A80036; stroke-width: 1.5;" width="188" x="1699" y="860.5"/><ellipse cx="1756.75" cy="876.5" fill="#ADD1B2" rx="11" ry="11" style="stroke: #A80036; stroke-width: 1.0;"/><path d="M1759.0938,872.1719 L1759.2656,872.25 C1759.4844,871.9375 1759.6875,871.8438 1759.9844,871.8438 C1760.2813,871.8438 1760.5625,871.9844 1760.7188,872.25 C1760.8125,872.4063 1760.8281,872.5313 1760.8281,872.9688 L1760.8281,874.3906 C1760.8281,874.8125 1760.7969,875 1760.6875,875.1563 C1760.5156,875.375 1760.25,875.5156 1759.9844,875.5156 C1759.7656,875.5156 1759.5313,875.4063 1759.3906,875.2656 C1759.25,875.1406 1759.2188,875.0156 1759.1563,874.6094 C1759.0625,874.2031 1758.8906,873.9844 1758.4063,873.7031 C1757.9375,873.4531 1757.3281,873.2969 1756.75,873.2969 C1755.0156,873.2969 1753.7656,874.6094 1753.7656,876.3906 L1753.7656,877.4844 C1753.7656,879.1875 1755.0625,880.2813 1757.1094,880.2813 C1757.875,880.2813 1758.5625,880.1563 1758.9844,879.8906 C1759.1719,879.7969 1759.1719,879.7969 1759.625,879.3125 C1759.8125,879.125 1760.0156,879.0469 1760.2344,879.0469 C1760.7031,879.0469 1761.0938,879.4375 1761.0938,879.8906 C1761.0938,880.2813 1760.7656,880.7344 1760.1875,881.1406 C1759.4375,881.6875 1758.2813,881.9844 1757.0625,881.9844 C1754.1719,881.9844 1752.0625,880.0938 1752.0625,877.5156 L1752.0625,876.3906 C1752.0625,873.6719 1754.0625,871.5938 1756.6875,871.5938 C1757.5625,871.5938 1758.1563,871.7344 1759.0938,872.1719 Z "/><text fill="#000000" font-family="sans-serif" font-size="12" lengthAdjust="spacingAndGlyphs" textLength="64" x="1777.25" y="880.6543">Superheld</text><line style="stroke: #A80036; stroke-width: 1.5;" x1="1700" x2="1886" y1="892.5" y2="892.5"/><line style="stroke: #A80036; stroke-width: 1.5;" x1="1700" x2="1886" y1="900.5" y2="900.5"/><text fill="#000000" font-family="sans-serif" font-size="11" lengthAdjust="spacingAndGlyphs" textLength="176" x="1705" y="914.7104">+setSuperkraft(String...) : void</text><text fill="#000000" font-family="sans-serif" font-size="11" lengthAdjust="spacingAndGlyphs" textLength="139" x="1705" y="927.5151">+kaempfe(Mutant) : void</text><path d="M365.5,417.5 L365.5,472.8984 A0,0 0 0 0 365.5,472.8984 L670.737,472.8984 L756.467,541.901 L678.737,472.8984 L920.5,472.8984 A0,0 0 0 0 920.5,472.8984 L920.5,427.5 L910.5,417.5 L365.5,417.5 A0,0 0 0 0 365.5,417.5 " fill="#FBFB77" filter="url(#f1rlb1j2gkfsre)" style="stroke: #A80036; stroke-width: 1.0;"/><path d="M910.5,417.5 L910.5,427.5 L920.5,427.5 L910.5,417.5 " fill="#FBFB77" style="stroke: #A80036; stroke-width: 1.0;"/><text fill="#000000" font-family="sans-serif" font-size="13" lengthAdjust="spacingAndGlyphs" textLength="534" x="371.5" y="434.5669">berechneGesamtsteuerFuerPersonen berechnet alle Steuern für mehrere Personen</text><text fill="#000000" font-family="sans-serif" font-size="13" lengthAdjust="spacingAndGlyphs" textLength="399" x="371.5" y="449.6997">berechneGesamtsteuer berechnet alle Steuern von Metropolis</text><text fill="#000000" font-family="sans-serif" font-size="13" lengthAdjust="spacingAndGlyphs" textLength="313" x="371.5" y="464.8325">Es soll nur ein einziges Finanzamt erstellt werden</text><path d="M715,8 L715,33.1328 A0,0 0 0 0 715,33.1328 L1045,33.1328 L1049,92.94 L1053,33.1328 L1383,33.1328 A0,0 0 0 0 1383,33.1328 L1383,18 L1373,8 L715,8 A0,0 0 0 0 715,8 " fill="#FBFB77" filter="url(#f1rlb1j2gkfsre)" style="stroke: #A80036; stroke-width: 1.0;"/><path d="M1373,8 L1373,18 L1383,18 L1373,8 " fill="#FBFB77" style="stroke: #A80036; stroke-width: 1.0;"/><text fill="#000000" font-family="sans-serif" font-size="13" lengthAdjust="spacingAndGlyphs" textLength="647" x="721" y="25.0669">Im Kontruktor soll jeweils entschieden werden welche Steuer für diese Person true gesetzt werden soll</text><path d="M956,425 L956,465.2656 A0,0 0 0 0 956,465.2656 L1190.93,465.2656 L1178.25,618.188 L1198.93,465.2656 L1438,465.2656 A0,0 0 0 0 1438,465.2656 L1438,435 L1428,425 L956,425 A0,0 0 0 0 956,425 " fill="#FBFB77" filter="url(#f1rlb1j2gkfsre)" style="stroke: #A80036; stroke-width: 1.0;"/><path d="M1428,425 L1428,435 L1438,435 L1428,425 " fill="#FBFB77" style="stroke: #A80036; stroke-width: 1.0;"/><text fill="#000000" font-family="sans-serif" font-size="13" lengthAdjust="spacingAndGlyphs" textLength="461" x="962" y="442.0669">meldeAnFinanzamt() soll setEinkommenssteuerpflichtig implementieren</text><text fill="#000000" font-family="sans-serif" font-size="13" lengthAdjust="spacingAndGlyphs" textLength="338" x="962" y="457.1997">Person wird zur ArrayList steuerpflichtige hinzugefügt</text><!--link Unternehmen to Kapitalgesellschaft--><path d="M323.253,940.428 C310.959,969.473 294.551,1008.236 281.667,1038.674 " fill="none" id="Unternehmen-Kapitalgesellschaft" style="stroke: #A80036; stroke-width: 1.0;"/><polygon fill="none" points="316.948,937.365,331.19,921.675,329.841,942.822,316.948,937.365" style="stroke: #A80036; stroke-width: 1.0;"/><!--link Organisation to Unternehmen--><path d="M341,699.763 C341,752.571 341,833.73 341,873.258 " fill="none" id="Organisation-Unternehmen" style="stroke: #A80036; stroke-width: 1.0;"/><polygon fill="none" points="334,699.734,341,679.734,348,699.734,334,699.734" style="stroke: #A80036; stroke-width: 1.0;"/><!--link Person to Organisation--><path d="M893.831,225.501 C708.904,242.771 416.248,282.592 348,365 C287.499,438.054 314.244,561.806 331.071,618.291 " fill="none" id="Person-Organisation" style="stroke: #A80036; stroke-width: 1.0;"/><polygon fill="none" points="893.326,218.518,913.878,223.678,894.595,232.461,893.326,218.518" style="stroke: #A80036; stroke-width: 1.0;"/><!--link Unternehmen to Personengesellschaft--><path d="M367.136,938.55 C381.154,958.775 399.35,983.164 418,1003 C429.588,1015.326 442.917,1027.586 456.01,1038.79 " fill="none" id="Unternehmen-Personengesellschaft" style="stroke: #A80036; stroke-width: 1.0;"/><polygon fill="none" points="361.169,942.221,355.767,921.732,372.767,934.38,361.169,942.221" style="stroke: #A80036; stroke-width: 1.0;"/><!--link Organisation to Syndikat--><path d="M376.628,695.741 C410.351,739.037 460.802,803.808 495.216,847.99 " fill="none" id="Organisation-Syndikat" style="stroke: #A80036; stroke-width: 1.0;"/><polygon fill="none" points="370.927,699.814,364.16,679.734,381.972,691.211,370.927,699.814" style="stroke: #A80036; stroke-width: 1.0;"/><!--link Person to Einwohner--><path d="M1203.37,262.175 C1364.24,312.379 1608.49,388.602 1722.82,424.282 " fill="none" id="Person-Einwohner" style="stroke: #A80036; stroke-width: 1.0;"/><polygon fill="none" points="1201.18,268.826,1184.18,256.186,1205.35,255.462,1201.18,268.826" style="stroke: #A80036; stroke-width: 1.0;"/><!--link Einwohner to Mensch--><path d="M1866.75,482.039 C1875.29,487.21 1883.56,492.877 1891,499 C1920.88,523.575 1947.85,557.152 1968.26,586.211 " fill="none" id="Einwohner-Mensch" style="stroke: #A80036; stroke-width: 1.0;"/><polygon fill="none" points="1863.07,488.003,1849.03,472.134,1869.91,475.783,1863.07,488.003" style="stroke: #A80036; stroke-width: 1.0;"/><!--link Mensch to Buerger--><path d="M2007,731.805 C2007,778.179 2007,833.412 2007,866.677 " fill="none" id="Mensch-Buerger" style="stroke: #A80036; stroke-width: 1.0;"/><polygon fill="none" points="2000,731.567,2007,711.566,2014,731.566,2000,731.567" style="stroke: #A80036; stroke-width: 1.0;"/><!--link Mensch to Richter--><path d="M2071.44,727.104 C2104.37,766.509 2143.45,813.271 2172.19,847.67 " fill="none" id="Mensch-Richter" style="stroke: #A80036; stroke-width: 1.0;"/><polygon fill="none" points="2065.9,731.402,2058.45,711.566,2076.65,722.424,2065.9,731.402" style="stroke: #A80036; stroke-width: 1.0;"/><!--link Einwohner to Mutant--><path d="M1786,502.412 C1786,532.874 1786,570.107 1786,599.295 " fill="none" id="Einwohner-Mutant" style="stroke: #A80036; stroke-width: 1.0;"/><polygon fill="none" points="1779,502.114,1786,482.114,1793,502.114,1779,502.114" style="stroke: #A80036; stroke-width: 1.0;"/><!--link Mutant to Schurke--><path d="M1729.27,713.858 C1701.6,744.994 1668.04,782.775 1638.63,815.877 " fill="none" id="Mutant-Schurke" style="stroke: #A80036; stroke-width: 1.0;"/><polygon fill="none" points="1724.22,709.003,1742.73,698.7,1734.68,718.301,1724.22,709.003" style="stroke: #A80036; stroke-width: 1.0;"/><!--link Mutant to Superheld--><path d="M1787.95,718.785 C1789.26,764.698 1790.92,823.234 1791.97,860.304 " fill="none" id="Mutant-Superheld" style="stroke: #A80036; stroke-width: 1.0;"/><polygon fill="none" points="1780.95,718.891,1787.38,698.7,1794.95,718.494,1780.95,718.891" style="stroke: #A80036; stroke-width: 1.0;"/><!--link Steuerzahler to Syndikat--><path d="M1148.99,697.246 C1131,725.519 1104.49,759.777 1072,780 C934.949,865.317 744.589,888.785 630.61,894.866 " fill="none" id="Steuerzahler-Syndikat" style="stroke: #A80036; stroke-width: 1.0; stroke-dasharray: 7.0,7.0;"/><polygon fill="none" points="1143.23,693.245,1159.55,679.739,1155.21,700.479,1143.23,693.245" style="stroke: #A80036; stroke-width: 1.0;"/><!--link Steuerzahler to Unternehmen--><path d="M1151.08,697.312 C1133.51,726.644 1106.67,762.045 1072,780 C942.753,846.939 550.224,755.151 418,816 C391.471,828.208 369.449,854.022 355.846,873.143 " fill="none" id="Steuerzahler-Unternehmen" style="stroke: #A80036; stroke-width: 1.0; stroke-dasharray: 7.0,7.0;"/><polygon fill="none" points="1145.14,693.597,1161.05,679.602,1157.34,700.464,1145.14,693.597" style="stroke: #A80036; stroke-width: 1.0;"/><!--link Steuerzahler to Buerger--><path d="M1241.97,689.523 C1296.95,719.886 1377.87,759.916 1454,780 C1648,831.18 1717.06,743.145 1904,816 C1932.34,827.043 1959.23,848.581 1978.42,866.602 " fill="none" id="Steuerzahler-Buerger" style="stroke: #A80036; stroke-width: 1.0; stroke-dasharray: 7.0,7.0;"/><polygon fill="none" points="1238.38,695.534,1224.37,679.64,1245.23,683.327,1238.38,695.534" style="stroke: #A80036; stroke-width: 1.0;"/><!--link Steuerzahler to Schurke--><path d="M1239.45,690.531 C1302.25,730.02 1398.51,790.552 1470.46,835.79 " fill="none" id="Steuerzahler-Schurke" style="stroke: #A80036; stroke-width: 1.0; stroke-dasharray: 7.0,7.0;"/><polygon fill="none" points="1235.49,696.306,1222.28,679.734,1242.94,684.454,1235.49,696.306" style="stroke: #A80036; stroke-width: 1.0;"/><!--link Kaempfer to Schurke--><path d="M1572.59,699.807 C1571.64,733.098 1570.38,777.643 1569.29,815.923 " fill="none" id="Kaempfer-Schurke" style="stroke: #A80036; stroke-width: 1.0; stroke-dasharray: 7.0,7.0;"/><polygon fill="none" points="1565.59,699.527,1573.16,679.734,1579.58,699.924,1565.59,699.527" style="stroke: #A80036; stroke-width: 1.0;"/><!--link Kaempfer to Superheld--><path d="M1610.14,695.649 C1630.5,720.908 1656.65,752.634 1681,780 C1705.62,807.667 1734.63,837.776 1756.95,860.453 " fill="none" id="Kaempfer-Superheld" style="stroke: #A80036; stroke-width: 1.0; stroke-dasharray: 7.0,7.0;"/><polygon fill="none" points="1604.42,699.698,1597.38,679.712,1615.35,690.946,1604.42,699.698" style="stroke: #A80036; stroke-width: 1.0;"/><!--
@startuml
skinparam classAttributeIconSize 0


package hsMannheim.pr2.ws2018.grp3.pflichtuebung2.personen.juristischePersonen.stadtverwaltung{
interface Steuerzahler{
   + {static} meldeAnFinanzamt() : void
}
class Finanzamt {
   - {static} steuerpflichtige: ArrayList<Person>
   - {static} : ArrayList<Person>
   + berechneEinkommenssteuer(Person): double
   + berechneGewerbesteuer(Person) : double
   + berechneKoerperschaftssteuer(Person) : double
   + berechneGesamtsteuerFuerPersonen(Person...) : double
   + berechneSteuerAllerBuerger() : double
   + berechneSteuerAllerSchurken() : double
   + berechneSteuerAllerOrganisationen() : double
   + berechneGesamtsteuer() : double
   + {static} setSteuerpflichtige(Person) : void
   + {static} getAlleSteuerpflichtigen() : ArrayList<Person> 
   + {static} getInstanz() : Finanzamt
}
}



package hsMannheim.pr2.ws2018.grp3.pflichtuebung2.personen.juristischePersonen{
class Kapitalgesellschaft{
   - gesellschafter : Buerger[] 
   + meldeAnFinanzamt() : void 
   + setGesellschafter(Buerger...) : void
   + getGesellschafter() : Buerger[]
}

abstract class Organisation{
   + getName() : String
}

class Personengesellschaft{
  - inhaber: Buerger[] 
   + meldeAnFinanzamt() : void 
   + setGesellschafter(Buerger...) : void
   + getGesellschafter() : Buerger[]
}


abstract class Unternehmen{
}

class Syndikat{
   - mitglieder : Schurke[] 
   + setMitglieder(Schurke...) : void
   + getMitglieder() : Schurke[]
   +meldeAnFinanzamt() : void 
}


}



package hsMannheim.pr2.ws2018.grp3.pflichtuebung2.personen{
class Person {
   - einkommensteuerpflichtig : boolean
   - boolean gewerbesteuerpflichtig : boolean
   - koerperschaftssteuerpflichtig : boolean 
   - einkommen : int
   - name : String
   + getEinkommen(): int
   + setEinkommen(int) : void
   + getPersonName(): String
   + setPersonName(String) : void
   + isEinkommenssteuerpflichtig() : boolean 
   + isGewerbesteuerpflichtig() : boolean 
   + isKoerperschaftsteuerpflichtig() : boolean 
   + getName() : String 
   + getEinkommensteuerpflichtig() : boolean 
   + setEinkommensteuerpflichtig(boolean): void 
}
}



package hsMannheim.pr2.ws2018.grp3.pflichtuebung2.personen.natuerlichePersonen{
interface Kaempfer{
    + {abstract}  kaempfe(Mutant) : void
}


abstract class Mensch{
  - job : String
  - alter : int
   + getJob(): String
   + setJob(String) : void
   + getAlter(): int
   + setAlter(int) : void
}


class Buerger{
   +meldeAnFinanzamt() : void 
}


class Richter{
   - korrupt : boolean
   + verurteilen(Schurke) : void 
   + isKorrupt(): boolean
   + setKorrupt(boolean) : void
}


abstract class Einwohner{
 - vorname: String
 + getName() : String 
}

abstract class Mutant{
 # mutation: String
 # superkraefte: String[]
  + {abstract} setSuperkraft() : void
  + getSuperkraefte() : String[]
}

class Schurke{
 - eingesperrt: boolean
 - schuldig: boolean
  + setSuperkraft(String...) : void
  + meldeAnFinanzamt() : void
  + kaempfe(Mutant) : void
 + isSchuldig() : void
 + isEingesperrt() : void
 + setSchuldig(boolean) : void
 + setEingesperrt(boolean) : void
}

class Superheld{
  + setSuperkraft(String...) : void
  + kaempfe(Mutant) : void

}




}

Unternehmen<|- - Kapitalgesellschaft
Organisation<|- - Unternehmen
Person<|- - Organisation
Unternehmen<|- - Personengesellschaft
Organisation<|- - Syndikat
Person<|- - Einwohner
Einwohner<|- - Mensch
Mensch<|- - Buerger
Mensch<|- - Richter
Einwohner<|- - Mutant
Mutant<|- - Schurke
Mutant<|- - Superheld

Steuerzahler<|.. Syndikat
Steuerzahler<|.. Unternehmen
Steuerzahler<|.. Buerger
Steuerzahler<|.. Schurke
Kaempfer<|.. Schurke
Kaempfer<|.. Superheld

note top of Finanzamt: berechneGesamtsteuerFuerPersonen berechnet alle Steuern für mehrere Personen\nberechneGesamtsteuer berechnet alle Steuern von Metropolis\nEs soll nur ein einziges Finanzamt erstellt werden
note top of Person: Im Kontruktor soll jeweils entschieden werden welche Steuer für diese Person true gesetzt werden soll
note top of Steuerzahler: meldeAnFinanzamt() soll setEinkommenssteuerpflichtig implementieren\nPerson wird zur ArrayList steuerpflichtige hinzugefügt
@enduml

PlantUML version 1.2018.13(Mon Nov 26 17:11:51 UTC 2018)
(GPL source distribution)
Java Runtime: Java(TM) SE Runtime Environment
JVM: Java HotSpot(TM) 64-Bit Server VM
Java Version: 1.7.0_25-b15
Operating System: Linux
Default Encoding: UTF-8
Language: en
Country: US
--></g></svg>